<svg xmlns="http://www.w3.org/2000/svg" width="1666" height="503" viewBox="0 0 1666 503">
<g>
<path d="M 401.00,501.47 L 395.14,500.80 L 383.79,499.02 L 378.18,498.06 L 367.30,495.69 L 361.93,494.43 L 351.52,491.48 L 346.38,489.92 L 336.44,486.37 L 331.53,484.52 L 322.06,480.38 L 317.38,478.23 L 308.37,473.49 L 303.92,471.04 L 295.35,465.70 L 283.02,457.01 L 281.88,456.15 L 279.31,454.06 L 277.99,452.97 L 275.18,450.57 L 272.35,448.12 L 266.82,443.06 L 265.52,441.84 L 263.19,439.59 L 262.09,438.51 L 260.32,436.68 L 259.92,436.26 L 259.26,435.53 L 258.95,435.18 L 258.50,434.61 L 258.30,434.35 L 258.07,433.98 L 258.02,433.66 L 258.10,433.58 L 258.90,433.89 L 259.39,434.11 L 260.88,434.91 L 261.70,435.37 L 263.69,436.57 L 267.02,438.68 L 268.61,439.72 L 272.25,441.92 L 274.14,443.04 L 278.29,445.33 L 280.41,446.48 L 284.91,448.80 L 287.19,449.96 L 291.89,452.23 L 296.60,454.48 L 306.00,458.52 L 308.29,459.47 L 312.69,461.17 L 318.82,463.34 L 322.23,464.45 L 329.15,466.48 L 332.63,467.46 L 339.70,469.21 L 343.25,470.05 L 350.45,471.52 L 354.07,472.22 L 361.39,473.42 L 365.07,473.99 L 372.51,474.91 L 376.25,475.33 L 383.80,475.98 L 387.59,476.27 L 395.24,476.64 L 399.08,476.79 L 406.81,476.88 L 410.69,476.90 L 418.51,476.72 L 422.43,476.59 L 430.32,476.13 L 434.28,475.87 L 442.23,475.13 L 446.21,474.73 L 454.22,473.72 L 458.23,473.18 L 466.28,471.90 L 470.31,471.22 L 478.40,469.66 L 482.44,468.84 L 490.55,467.00 L 502.74,463.93 L 506.80,462.84 L 514.84,460.48 L 518.85,459.26 L 526.80,456.65 L 534.72,453.97 L 550.24,447.91 L 557.94,444.76 L 572.97,437.81 L 580.42,434.23 L 594.91,426.43 L 602.08,422.44 L 615.95,413.87 L 622.81,409.50 L 636.01,400.21 L 642.52,395.48 L 654.99,385.52 L 661.12,380.47 L 672.79,369.91 L 678.52,364.57 L 689.33,353.46 L 694.63,347.85 L 704.52,336.26 L 706.93,333.33 L 711.57,327.40 L 713.86,324.42 L 718.25,318.38 L 720.42,315.35 L 724.55,309.22 L 726.58,306.14 L 730.45,299.92 L 732.34,296.80 L 735.93,290.50 L 737.69,287.34 L 741.00,280.97 L 742.62,277.77 L 745.64,271.33 L 747.11,268.10 L 749.83,261.60 L 751.15,258.35 L 753.57,251.80 L 754.74,248.52 L 756.84,241.92 L 757.85,238.62 L 759.63,231.98 L 761.93,222.00 L 762.50,219.20 L 763.46,213.37 L 763.91,210.43 L 764.62,204.37 L 765.27,198.29 L 765.81,185.91 L 765.88,182.84 L 765.83,176.78 L 765.77,173.77 L 765.46,167.93 L 765.27,165.05 L 764.69,159.53 L 763.53,151.74 L 762.59,146.62 L 760.08,136.69 L 758.71,131.78 L 755.36,122.29 L 753.58,117.59 L 749.42,108.55 L 747.24,104.08 L 742.29,95.51 L 739.71,91.28 L 734.00,83.20 L 731.05,79.22 L 724.60,71.64 L 721.28,67.92 L 714.11,60.87 L 710.44,57.42 L 702.58,50.92 L 698.57,47.74 L 690.05,41.80 L 685.71,38.91 L 676.54,33.56 L 671.88,30.96 L 662.10,26.22 L 657.13,23.92 L 646.76,19.81 L 641.50,17.83 L 630.56,14.35 L 625.02,12.70 L 613.53,9.88 L 607.72,8.56 L 595.71,6.43 L 577.14,4.03 L 576.43,3.95 L 574.79,3.82 L 573.94,3.75 L 572.07,3.63 L 570.15,3.50 L 565.90,3.30 L 563.74,3.21 L 559.41,3.08 L 553.39,3.00 L 540.00,3.00 L 540.00,5.46 L 540.00,6.15 L 539.50,7.37 L 539.18,7.94 L 538.21,8.81 L 537.69,9.19 L 536.46,9.56 L 534.57,9.39 L 534.10,9.21 L 533.48,8.32 L 533.23,7.83 L 533.05,6.58 L 533.01,5.94 L 533.29,4.69 L 534.25,3.23 L 534.48,3.04 L 535.45,2.69 L 536.02,2.52 L 537.61,2.20 L 538.48,2.05 L 540.64,1.76 L 541.78,1.62 L 544.41,1.37 L 545.78,1.25 L 548.83,1.03 L 550.40,0.93 L 553.79,0.75 L 557.25,0.58 L 564.89,0.36 L 568.78,0.27 L 576.85,0.22 L 580.89,0.21 L 588.83,0.34 L 592.73,0.43 L 599.96,0.76 L 601.69,0.85 L 604.93,1.08 L 609.38,1.48 L 613.78,1.95 L 622.39,3.15 L 626.66,3.80 L 635.02,5.34 L 639.17,6.15 L 647.27,8.03 L 651.29,9.01 L 659.13,11.22 L 663.01,12.37 L 670.58,14.92 L 674.33,16.24 L 681.63,19.11 L 685.24,20.59 L 692.26,23.80 L 695.73,25.44 L 702.46,28.97 L 705.79,30.77 L 712.23,34.62 L 715.42,36.59 L 721.56,40.75 L 724.60,42.87 L 730.44,47.36 L 733.33,49.64 L 738.86,54.43 L 741.59,56.86 L 746.82,61.96 L 749.39,64.55 L 754.29,69.96 L 756.71,72.70 L 761.29,78.41 L 767.79,87.32 L 770.46,91.21 L 775.27,99.30 L 777.58,103.39 L 781.67,111.85 L 783.63,116.11 L 787.01,124.89 L 788.61,129.32 L 791.27,138.40 L 792.51,142.97 L 794.47,152.31 L 795.36,157.00 L 796.60,166.57 L 797.14,171.38 L 797.67,181.13 L 797.85,186.03 L 797.68,195.95 L 797.50,200.93 L 796.63,210.97 L 796.10,216.01 L 794.52,226.14 L 793.64,231.22 L 791.35,241.41 L 790.12,246.51 L 787.13,256.73 L 785.55,261.84 L 781.85,272.05 L 779.92,277.15 L 775.53,287.32 L 773.25,292.40 L 768.16,302.49 L 759.74,317.50 L 756.92,322.19 L 750.75,331.57 L 747.58,336.26 L 740.75,345.57 L 737.25,350.21 L 729.83,359.37 L 726.05,363.93 L 718.11,372.85 L 714.08,377.28 L 705.70,385.89 L 701.46,390.15 L 692.71,398.37 L 688.30,402.42 L 679.26,410.15 L 665.46,421.13 L 661.89,423.83 L 654.65,429.04 L 651.01,431.61 L 643.66,436.56 L 639.98,439.00 L 632.51,443.70 L 628.77,446.01 L 621.20,450.44 L 617.40,452.63 L 609.73,456.80 L 605.88,458.85 L 598.10,462.76 L 594.20,464.68 L 586.32,468.33 L 582.37,470.12 L 574.39,473.51 L 570.39,475.17 L 562.31,478.29 L 558.26,479.82 L 550.10,482.67 L 546.00,484.07 L 537.74,486.66 L 533.60,487.92 L 525.25,490.24 L 521.06,491.37 L 512.62,493.42 L 508.40,494.42 L 499.87,496.20 L 495.60,497.06 L 487.00,498.58 L 474.00,500.54 L 472.97,500.68 L 470.65,500.94 L 469.44,501.06 L 466.80,501.29 L 464.08,501.52 L 457.90,501.88 L 454.71,502.04 L 447.87,502.29 L 444.40,502.39 L 437.29,502.52 L 433.74,502.56 L 426.74,502.55 L 423.29,502.54 L 416.79,502.40 L 413.64,502.31 L 408.02,502.04 L 406.69,501.96 L 404.25,501.78 L 403.08,501.68 M 837.91,502.04 L 836.70,501.68 L 834.59,500.68 L 833.59,500.12 L 831.83,498.69 L 830.98,497.91 L 829.47,495.95 L 827.38,492.34 L 826.82,491.20 L 826.02,489.25 L 825.66,488.28 L 825.20,486.36 L 825.00,485.36 L 824.79,483.05 L 824.67,478.69 L 824.66,476.62 L 824.94,472.83 L 825.13,471.00 L 825.81,467.69 L 826.19,466.10 L 827.24,463.29 L 827.82,461.94 L 829.24,459.64 L 830.00,458.55 L 831.78,456.76 L 832.72,455.94 L 834.86,454.69 L 835.97,454.13 L 838.45,453.42 L 842.55,453.00 L 843.62,453.00 L 845.65,453.24 L 846.64,453.39 L 848.51,453.93 L 849.43,454.24 L 851.14,455.08 L 851.97,455.53 L 853.51,456.66 L 854.25,457.26 L 855.60,458.66 L 856.25,459.40 L 857.40,461.08 L 857.94,461.95 L 858.89,463.89 L 860.05,467.08 L 860.25,467.73 L 860.55,469.36 L 860.68,470.21 L 860.87,472.15 L 861.03,474.15 L 861.03,478.59 L 860.98,480.81 L 860.56,485.00 L 860.44,485.99 L 860.11,487.76 L 859.51,489.99 L 859.07,491.23 L 857.95,493.48 L 857.35,494.56 L 855.95,496.47 L 855.22,497.38 L 853.58,498.92 L 852.73,499.64 L 850.87,500.80 L 849.92,501.33 L 847.90,502.09 L 846.87,502.42 L 844.71,502.75 L 843.62,502.86 L 841.36,502.74 L 840.23,502.63 M 847.88,492.37 L 848.52,491.92 L 849.94,490.24 L 851.61,487.40 L 851.85,486.82 L 852.24,485.38 L 852.41,484.62 L 852.67,482.91 L 852.90,481.14 L 852.97,477.23 L 852.95,475.28 L 852.52,471.61 L 852.38,470.74 L 852.01,469.20 L 851.33,467.28 L 850.88,466.33 L 849.70,464.80 L 849.08,464.09 L 847.63,463.04 L 846.88,462.57 L 845.25,461.99 L 844.43,461.76 L 842.74,461.66 L 841.90,461.67 L 840.25,462.04 L 839.44,462.28 L 837.94,463.13 L 837.21,463.61 L 835.96,464.92 L 834.46,467.43 L 834.22,468.01 L 833.83,469.49 L 833.65,470.27 L 833.38,472.07 L 833.14,473.92 L 833.02,478.03 L 833.03,480.08 L 833.40,483.84 L 833.52,484.71 L 833.86,486.22 L 834.49,487.99 L 834.86,488.71 L 835.73,489.96 L 836.18,490.55 L 837.19,491.55 L 837.70,492.02 L 838.81,492.75 L 839.38,493.08 L 840.56,493.55 L 841.16,493.74 L 842.39,493.92 L 843.01,493.98 L 844.25,493.86 L 844.87,493.77 L 846.10,493.35 L 846.71,493.10 M 1075.50,501.85 L 1074.60,501.52 L 1072.92,500.63 L 1072.10,500.15 L 1070.57,498.98 L 1069.83,498.35 L 1068.47,496.91 L 1067.82,496.15 L 1066.65,494.45 L 1066.09,493.57 L 1065.11,491.64 L 1064.64,490.64 L 1063.87,488.49 L 1063.51,487.39 L 1062.95,485.05 L 1062.38,481.32 L 1062.22,479.83 L 1062.19,476.88 L 1062.22,475.41 L 1062.54,472.54 L 1062.74,471.12 L 1063.39,468.41 L 1063.75,467.07 L 1064.68,464.58 L 1065.19,463.37 L 1066.39,461.17 L 1067.02,460.11 L 1068.46,458.27 L 1069.21,457.40 L 1070.85,455.99 L 1073.53,454.42 L 1074.76,453.91 L 1077.60,453.31 L 1079.05,453.08 L 1082.04,453.05 L 1083.51,453.10 L 1086.28,453.61 L 1089.76,454.99 L 1090.38,455.37 L 1091.56,456.33 L 1092.14,456.83 L 1093.21,457.98 L 1094.25,459.16 L 1095.81,461.72 L 1096.14,462.35 L 1096.62,463.55 L 1096.82,464.14 L 1097.01,465.19 L 1097.06,465.68 L 1096.91,466.49 L 1096.25,467.32 L 1096.15,467.38 L 1095.72,467.55 L 1095.48,467.63 L 1094.84,467.82 L 1092.50,468.41 L 1091.84,468.55 L 1090.88,468.65 L 1090.44,468.66 L 1089.79,468.43 L 1089.49,468.27 L 1088.98,467.63 L 1088.20,466.10 L 1087.76,465.10 L 1086.41,463.58 L 1085.67,462.90 L 1083.86,462.07 L 1082.91,461.75 L 1080.80,461.66 L 1077.48,462.44 L 1076.30,462.94 L 1074.42,464.43 L 1073.56,465.27 L 1072.30,467.51 L 1071.75,468.73 L 1071.07,471.82 L 1070.93,472.65 L 1070.76,474.48 L 1070.65,477.50 L 1070.64,479.40 L 1070.95,482.66 L 1071.17,484.20 L 1071.96,486.80 L 1072.42,488.02 L 1073.70,490.03 L 1076.22,492.44 L 1076.86,492.89 L 1078.31,493.47 L 1079.05,493.71 L 1080.61,493.90 L 1081.40,493.95 L 1082.96,493.78 L 1083.73,493.66 L 1085.19,493.17 L 1085.89,492.90 L 1087.15,492.14 L 1087.74,491.74 L 1088.67,490.75 L 1089.09,490.24 L 1089.61,489.06 L 1089.81,487.13 L 1089.74,486.55 L 1089.51,485.73 L 1089.36,485.36 L 1088.83,484.89 L 1088.51,484.69 L 1087.48,484.44 L 1085.19,484.19 L 1084.12,484.11 L 1082.71,483.95 L 1082.11,483.85 L 1081.46,483.46 L 1081.21,483.21 L 1081.08,482.33 L 1081.19,480.19 L 1081.50,476.50 L 1089.79,476.21 L 1098.07,475.92 L 1097.79,486.17 L 1097.50,496.42 L 1092.94,499.23 L 1091.65,500.03 L 1088.70,501.23 L 1087.18,501.76 L 1084.03,502.38 L 1082.47,502.62 L 1079.47,502.61 L 1078.02,502.53 M 1186.00,501.30 L 1184.93,500.75 L 1183.11,499.14 L 1182.25,498.26 L 1180.90,496.10 L 1180.29,494.96 L 1179.50,492.38 L 1179.00,488.20 L 1179.00,486.98 L 1179.32,484.74 L 1179.53,483.65 L 1180.29,481.62 L 1180.73,480.63 L 1181.96,478.78 L 1184.36,476.12 L 1184.96,475.56 L 1185.74,474.73 L 1186.06,474.35 L 1186.32,473.67 L 1186.39,473.32 L 1186.20,472.53 L 1185.46,470.92 L 1185.26,470.53 L 1184.89,469.43 L 1184.72,468.84 L 1184.43,467.47 L 1184.00,463.14 L 1184.00,462.06 L 1184.10,460.46 L 1184.18,459.72 L 1184.54,458.59 L 1184.75,458.06 L 1185.47,457.11 L 1187.08,455.59 L 1187.79,454.99 L 1189.35,454.11 L 1190.15,453.72 L 1191.82,453.25 L 1192.66,453.06 L 1194.36,452.98 L 1195.21,452.99 L 1196.86,453.28 L 1197.67,453.47 L 1199.20,454.11 L 1199.93,454.47 L 1201.25,455.45 L 1201.87,455.98 L 1202.89,457.27 L 1204.02,459.55 L 1204.42,460.77 L 1204.73,463.16 L 1204.80,464.34 L 1204.45,466.58 L 1204.19,467.68 L 1203.20,469.72 L 1201.01,472.49 L 1198.05,475.32 L 1200.21,479.16 L 1200.80,480.22 L 1201.81,481.66 L 1202.27,482.28 L 1203.00,482.82 L 1203.32,482.98 L 1203.74,482.60 L 1204.00,481.00 L 1204.00,480.48 L 1204.21,479.76 L 1204.37,479.46 L 1204.97,479.15 L 1205.33,479.05 L 1206.42,479.13 L 1208.75,479.63 L 1209.38,479.80 L 1210.21,480.35 L 1210.56,480.68 L 1210.82,481.66 L 1210.89,482.22 L 1210.62,483.79 L 1209.62,487.00 L 1209.32,487.82 L 1208.99,489.01 L 1208.87,489.55 L 1208.95,490.43 L 1209.05,490.86 L 1209.63,491.76 L 1211.13,493.50 L 1213.91,496.51 L 1211.86,499.75 L 1211.24,500.73 L 1210.33,501.96 L 1209.90,502.47 L 1209.14,502.79 L 1208.75,502.84 L 1207.85,502.30 L 1206.03,500.53 L 1203.71,498.07 L 1200.77,500.17 L 1199.75,500.89 L 1197.35,501.89 L 1196.12,502.31 L 1193.49,502.67 L 1192.18,502.77 L 1189.58,502.49 L 1188.31,502.26 M 1196.08,493.14 L 1198.38,491.27 L 1195.09,486.14 L 1194.63,485.43 L 1193.73,484.14 L 1193.28,483.53 L 1192.46,482.51 L 1192.06,482.04 L 1191.42,481.41 L 1190.76,481.00 L 1190.28,481.00 L 1189.38,481.60 L 1188.94,481.98 L 1188.19,483.19 L 1187.85,483.86 L 1187.36,485.49 L 1187.03,488.18 L 1187.03,488.96 L 1187.22,490.34 L 1187.34,491.00 L 1187.77,492.12 L 1188.01,492.64 L 1188.65,493.48 L 1188.99,493.86 L 1189.80,494.41 L 1190.22,494.64 L 1191.17,494.86 L 1191.66,494.93 L 1192.71,494.82 L 1193.24,494.72 L 1194.36,494.25 L 1194.93,493.98 M 1196.43,467.08 L 1197.07,466.37 L 1197.73,464.85 L 1197.96,464.10 L 1197.83,462.70 L 1197.67,462.05 L 1196.80,461.02 L 1194.74,460.18 L 1193.89,460.08 L 1192.63,460.35 L 1192.08,460.56 L 1191.45,461.42 L 1191.22,461.92 L 1191.24,463.32 L 1192.01,466.02 L 1192.37,466.89 L 1192.98,468.02 L 1193.28,468.49 L 1193.88,468.83 L 1194.20,468.91 L 1194.95,468.50 L 1195.36,468.20 M 1538.62,502.02 L 1537.72,501.73 L 1536.05,500.91 L 1535.23,500.45 L 1533.74,499.30 L 1533.02,498.69 L 1531.71,497.23 L 1531.08,496.47 L 1529.97,494.72 L 1529.44,493.82 L 1528.53,491.80 L 1528.11,490.76 L 1527.42,488.48 L 1527.10,487.32 L 1526.64,484.80 L 1526.21,480.78 L 1526.08,478.58 L 1526.18,474.52 L 1526.28,472.56 L 1526.86,469.00 L 1527.20,467.28 L 1528.23,464.24 L 1528.80,462.78 L 1530.27,460.27 L 1531.06,459.09 L 1532.97,457.14 L 1533.97,456.23 L 1536.29,454.86 L 1537.50,454.25 L 1540.23,453.47 L 1544.75,453.00 L 1546.24,453.00 L 1549.01,453.55 L 1550.36,453.92 L 1552.80,455.16 L 1553.98,455.86 L 1556.07,457.73 L 1557.07,458.73 L 1558.76,461.16 L 1559.55,462.45 L 1560.82,465.39 L 1561.39,466.92 L 1562.19,470.31 L 1562.52,472.05 L 1562.82,475.83 L 1562.65,481.88 L 1562.50,483.41 L 1562.00,486.26 L 1561.71,487.64 L 1560.91,490.17 L 1560.48,491.39 L 1559.42,493.59 L 1558.85,494.64 L 1557.53,496.49 L 1556.83,497.37 L 1555.26,498.86 L 1554.44,499.55 L 1552.63,500.66 L 1551.69,501.17 L 1549.66,501.88 L 1546.36,502.50 L 1545.02,502.62 L 1542.08,502.54 L 1541.38,502.50 L 1540.12,502.34 L 1539.53,502.26 M 1549.06,492.97 L 1549.90,492.52 L 1551.31,490.93 L 1551.96,490.04 L 1553.00,487.75 L 1553.47,486.54 L 1554.12,483.77 L 1554.40,482.35 L 1554.65,479.34 L 1554.72,477.83 L 1554.57,474.80 L 1554.44,473.31 L 1553.86,470.50 L 1553.52,469.15 L 1552.52,466.79 L 1550.51,464.01 L 1549.69,463.24 L 1547.71,462.27 L 1546.69,461.89 L 1544.51,461.69 L 1543.42,461.69 L 1541.31,462.26 L 1538.52,463.98 L 1537.77,464.68 L 1536.55,466.54 L 1535.99,467.53 L 1535.14,469.83 L 1534.77,471.03 L 1534.30,473.62 L 1534.11,474.94 L 1534.02,477.66 L 1534.02,479.03 L 1534.31,481.72 L 1534.49,483.05 L 1535.15,485.56 L 1535.53,486.78 L 1536.56,488.94 L 1538.54,491.63 L 1539.17,492.26 L 1540.78,493.16 L 1541.63,493.55 L 1543.49,493.92 L 1544.44,494.04 L 1546.36,493.87 L 1547.30,493.72 M 1641.50,501.11 L 1640.45,500.63 L 1638.65,499.36 L 1637.79,498.67 L 1636.38,496.99 L 1635.72,496.09 L 1634.68,493.99 L 1633.56,490.35 L 1633.37,489.49 L 1633.24,488.31 L 1633.23,487.78 L 1633.57,487.08 L 1633.82,486.76 L 1634.82,486.30 L 1637.27,485.62 L 1637.86,485.47 L 1638.74,485.37 L 1639.14,485.35 L 1639.73,485.56 L 1640.00,485.71 L 1640.44,486.31 L 1641.09,487.73 L 1641.52,488.86 L 1642.49,490.62 L 1643.00,491.42 L 1644.19,492.57 L 1644.82,493.07 L 1646.32,493.66 L 1649.00,494.00 L 1650.14,494.00 L 1652.05,493.52 L 1652.94,493.21 L 1654.29,492.17 L 1654.89,491.59 L 1655.59,490.08 L 1655.82,487.37 L 1655.75,486.76 L 1655.40,485.79 L 1655.16,485.33 L 1654.21,484.49 L 1653.92,484.28 L 1653.17,483.84 L 1652.76,483.61 L 1651.74,483.12 L 1651.20,482.87 L 1649.88,482.29 L 1647.50,481.30 L 1646.40,480.85 L 1644.22,479.83 L 1643.15,479.31 L 1641.20,478.25 L 1640.28,477.73 L 1638.78,476.75 L 1637.29,475.51 L 1636.73,474.87 L 1635.84,473.39 L 1635.44,472.63 L 1634.86,470.97 L 1634.61,470.12 L 1634.34,468.34 L 1634.25,467.45 L 1634.28,465.63 L 1634.34,464.72 L 1634.68,462.93 L 1634.88,462.05 L 1635.51,460.36 L 1635.87,459.53 L 1636.79,458.01 L 1638.50,456.00 L 1638.92,455.61 L 1640.02,454.92 L 1640.61,454.60 L 1641.98,454.08 L 1643.40,453.59 L 1646.70,453.12 L 1648.37,452.97 L 1651.68,453.22 L 1652.47,453.33 L 1653.95,453.69 L 1655.93,454.46 L 1656.36,454.69 L 1657.26,455.39 L 1657.71,455.78 L 1658.59,456.75 L 1659.46,457.76 L 1660.95,460.22 L 1661.63,461.46 L 1662.47,463.85 L 1662.62,464.42 L 1662.74,465.41 L 1662.59,466.64 L 1662.46,466.97 L 1662.00,467.44 L 1661.74,467.65 L 1661.07,467.90 L 1660.35,468.10 L 1658.59,467.88 L 1657.70,467.68 L 1656.02,466.77 L 1654.21,464.76 L 1653.92,464.16 L 1653.09,463.17 L 1652.64,462.72 L 1651.57,462.02 L 1651.01,461.71 L 1649.78,461.31 L 1649.16,461.15 L 1647.90,461.04 L 1647.27,461.03 L 1646.07,461.22 L 1645.48,461.35 L 1644.44,461.84 L 1643.95,462.13 L 1643.17,462.92 L 1642.42,464.46 L 1642.20,465.32 L 1642.14,466.60 L 1642.20,467.19 L 1642.95,468.16 L 1643.21,468.39 L 1643.93,468.87 L 1644.33,469.11 L 1645.38,469.62 L 1645.95,469.89 L 1647.37,470.47 L 1649.96,471.48 L 1651.87,472.21 L 1655.59,473.93 L 1656.45,474.35 L 1657.87,475.12 L 1659.38,476.09 L 1660.19,476.72 L 1661.51,478.50 L 1662.12,479.46 L 1663.00,481.76 L 1663.38,482.95 L 1663.77,485.59 L 1663.73,489.73 L 1663.57,491.08 L 1662.85,493.51 L 1662.43,494.68 L 1661.21,496.73 L 1660.55,497.70 L 1658.91,499.33 L 1658.05,500.09 L 1656.07,501.26 L 1655.05,501.79 L 1652.80,502.46 L 1651.65,502.74 L 1649.20,502.88 L 1647.96,502.88 L 1645.40,502.45 L 1644.11,502.16 M 733.78,501.45 L 733.72,501.39 L 733.61,500.78 L 733.56,500.41 L 733.46,499.24 L 733.42,498.59 L 733.34,496.94 L 733.30,496.07 L 733.24,494.02 L 733.21,492.95 L 733.17,490.59 L 733.14,489.37 L 733.11,486.77 L 733.09,484.13 L 733.08,478.51 L 733.09,475.70 L 733.14,470.22 L 733.16,468.89 L 733.21,466.38 L 733.23,465.15 L 733.29,462.90 L 733.33,461.82 L 733.40,459.92 L 733.44,459.02 L 733.53,457.55 L 733.58,456.88 L 733.69,455.92 L 733.86,455.16 L 733.98,454.98 L 734.46,454.63 L 734.74,454.46 L 735.47,454.17 L 738.11,453.66 L 741.50,453.50 L 742.00,463.35 L 742.50,473.20 L 749.40,463.62 L 750.12,462.62 L 751.37,460.90 L 751.97,460.09 L 753.02,458.73 L 753.53,458.09 L 754.41,457.03 L 754.83,456.54 L 755.59,455.75 L 756.31,455.02 L 757.55,454.20 L 759.40,453.60 L 760.44,453.46 L 762.35,453.28 L 763.25,453.20 L 764.76,453.17 L 765.45,453.17 L 766.40,453.27 L 767.00,453.60 L 767.00,453.63 L 766.86,453.88 L 766.77,454.03 L 766.45,454.50 L 766.10,455.03 L 764.97,456.62 L 764.34,457.50 L 762.77,459.64 L 760.09,463.23 L 753.18,472.39 L 760.09,486.18 L 761.04,488.08 L 762.77,491.62 L 763.60,493.32 L 764.97,496.22 L 765.28,496.89 L 765.82,498.06 L 766.06,498.61 L 766.45,499.51 L 766.63,499.92 L 766.86,500.50 L 767.00,500.99 L 767.00,501.18 L 766.67,501.47 L 766.46,501.60 L 765.78,501.79 L 765.04,501.95 L 762.98,501.97 L 761.93,501.93 L 759.88,501.57 L 759.41,501.46 L 758.63,501.17 L 757.78,500.64 L 757.69,500.54 L 757.41,500.16 L 757.27,499.94 L 756.90,499.34 L 756.51,498.68 L 755.52,496.80 L 755.00,495.79 L 753.82,493.40 L 752.00,489.50 L 747.59,479.73 L 744.83,483.03 L 744.24,483.75 L 743.38,485.01 L 743.01,485.65 L 742.51,487.08 L 742.29,487.85 L 742.03,489.84 L 741.98,490.39 L 741.89,491.68 L 741.79,493.92 L 741.50,501.50 L 737.96,501.80 L 736.99,501.88 L 735.28,501.82 L 734.90,501.79 L 734.31,501.68 L 734.06,501.61 M 780.67,501.33 L 780.62,501.29 L 780.53,500.73 L 780.49,500.37 L 780.41,499.24 L 780.37,498.61 L 780.29,496.98 L 780.26,496.11 L 780.20,494.04 L 780.17,492.96 L 780.11,490.52 L 780.09,489.26 L 780.05,486.52 L 780.00,477.45 L 780.00,476.05 L 780.00,473.50 L 780.00,472.27 L 780.01,470.03 L 780.01,468.94 L 780.02,466.99 L 780.03,466.05 L 780.04,464.37 L 780.06,462.75 L 780.12,460.24 L 780.16,459.09 L 780.28,457.38 L 780.34,456.61 L 780.52,455.54 L 780.62,455.07 L 780.87,454.49 L 782.00,453.71 L 782.55,453.57 L 783.53,453.42 L 784.00,453.38 L 784.86,453.51 L 785.29,453.62 L 786.12,454.11 L 786.54,454.41 L 787.41,455.35 L 787.86,455.88 L 788.85,457.36 L 789.36,458.17 L 790.53,460.27 L 791.15,461.41 L 792.58,464.22 L 795.11,469.33 L 802.50,484.50 L 802.78,469.35 L 803.05,454.20 L 805.57,453.57 L 806.26,453.40 L 807.63,453.30 L 809.05,453.53 L 809.12,453.57 L 809.25,454.10 L 809.31,454.44 L 809.43,455.52 L 809.49,456.13 L 809.59,457.72 L 809.65,458.58 L 809.73,460.63 L 809.78,461.71 L 809.85,464.19 L 809.88,465.47 L 809.93,468.32 L 809.95,469.79 L 809.98,472.97 L 810.00,478.06 L 810.00,502.00 L 806.75,501.98 L 805.86,501.98 L 804.16,501.76 L 803.78,501.69 L 803.14,501.52 L 802.50,501.23 L 802.43,501.18 L 802.16,500.80 L 802.00,500.57 L 801.56,499.84 L 801.32,499.45 L 800.74,498.43 L 800.44,497.88 L 799.74,496.60 L 799.01,495.27 L 797.30,491.99 L 794.50,486.50 L 787.50,472.50 L 787.22,487.25 L 786.95,502.00 L 784.14,502.00 L 783.37,502.00 L 781.96,501.80 L 781.33,501.68 M 881.39,501.23 L 881.31,501.19 L 881.08,500.59 L 880.95,500.22 L 880.62,499.04 L 880.45,498.38 L 880.03,496.70 L 879.82,495.81 L 879.34,493.72 L 879.10,492.63 L 878.57,490.21 L 878.31,488.97 L 877.75,486.31 L 877.19,483.61 L 876.05,477.86 L 875.49,474.99 L 874.45,469.41 L 874.20,468.06 L 873.74,465.51 L 873.52,464.27 L 873.14,462.00 L 872.96,460.90 L 872.66,459.00 L 872.53,458.10 L 872.33,456.66 L 872.25,456.00 L 872.18,455.09 L 872.23,454.43 L 872.45,454.21 L 873.66,453.87 L 874.34,453.72 L 875.99,453.55 L 876.80,453.49 L 878.24,453.54 L 878.55,453.56 L 879.03,453.67 L 879.44,453.91 L 879.47,453.96 L 879.58,454.32 L 879.64,454.54 L 879.79,455.22 L 879.95,455.96 L 880.39,458.23 L 880.62,459.47 L 881.16,462.50 L 882.01,467.58 L 882.30,469.36 L 882.88,472.75 L 883.17,474.39 L 883.71,477.26 L 883.97,478.61 L 884.40,480.64 L 884.50,481.08 L 884.67,481.75 L 884.86,482.40 L 884.92,482.56 L 885.08,482.64 L 885.17,482.64 L 885.37,482.39 L 885.47,482.22 L 885.71,481.65 L 885.84,481.32 L 886.12,480.41 L 886.27,479.91 L 886.60,478.67 L 886.77,478.00 L 887.14,476.42 L 887.34,475.59 L 887.76,473.67 L 888.44,470.40 L 888.83,468.49 L 889.60,464.88 L 889.98,463.14 L 890.67,460.13 L 890.83,459.43 L 891.13,458.20 L 891.27,457.62 L 891.53,456.65 L 891.64,456.21 L 891.84,455.55 L 892.06,454.96 L 892.18,454.72 L 892.65,454.31 L 892.92,454.11 L 893.63,453.79 L 894.39,453.50 L 896.25,453.23 L 897.18,453.15 L 898.93,453.35 L 899.33,453.43 L 899.99,453.69 L 900.70,454.23 L 900.77,454.32 L 900.96,454.78 L 901.06,455.05 L 901.31,455.85 L 901.44,456.29 L 901.74,457.39 L 901.89,457.97 L 902.23,459.32 L 902.58,460.73 L 903.35,464.14 L 904.54,469.78 L 904.93,471.74 L 905.70,475.23 L 906.07,476.87 L 906.75,479.49 L 906.91,480.08 L 907.20,481.05 L 907.34,481.49 L 907.59,482.15 L 907.70,482.44 L 907.88,482.75 L 908.08,482.78 L 908.13,482.69 L 908.27,482.25 L 908.34,481.98 L 908.53,481.22 L 908.72,480.38 L 909.23,477.91 L 909.49,476.57 L 910.09,473.34 L 911.01,468.00 L 911.32,466.14 L 911.97,462.70 L 912.29,461.05 L 912.92,458.25 L 913.07,457.60 L 913.36,456.49 L 913.50,455.96 L 913.76,455.12 L 913.88,454.73 L 914.10,454.19 L 914.37,453.77 L 914.68,453.56 L 915.98,453.24 L 918.25,453.02 L 918.70,453.01 L 919.42,453.04 L 919.75,453.08 L 920.23,453.36 L 920.45,453.55 L 920.68,454.29 L 920.77,454.74 L 920.74,456.16 L 920.69,456.97 L 920.39,459.29 L 920.29,459.94 L 920.05,461.43 L 919.92,462.21 L 919.61,464.01 L 919.44,464.94 L 919.05,467.06 L 918.85,468.16 L 918.39,470.64 L 918.14,471.92 L 917.60,474.77 L 916.70,479.50 L 912.49,501.50 L 908.61,501.50 L 907.39,501.50 L 905.53,501.10 L 905.13,500.97 L 904.51,500.63 L 903.90,500.00 L 903.84,499.90 L 903.67,499.39 L 903.57,499.09 L 903.33,498.21 L 903.20,497.74 L 902.89,496.55 L 902.74,495.92 L 902.38,494.46 L 902.02,492.94 L 901.19,489.28 L 899.89,483.23 L 899.45,481.13 L 898.63,477.33 L 898.23,475.52 L 897.55,472.54 L 897.39,471.86 L 897.12,470.71 L 896.99,470.18 L 896.77,469.35 L 896.67,468.98 L 896.53,468.51 L 896.40,468.26 L 896.38,468.28 L 896.28,468.63 L 896.22,468.85 L 896.05,469.56 L 895.95,469.96 L 895.71,470.99 L 895.58,471.55 L 895.29,472.87 L 894.99,474.25 L 894.25,477.69 L 893.03,483.53 L 892.78,484.75 L 892.33,486.96 L 892.11,488.03 L 891.72,489.94 L 891.53,490.86 L 891.19,492.49 L 891.02,493.28 L 890.72,494.66 L 890.43,495.99 L 889.94,497.97 L 889.70,498.86 L 889.27,500.10 L 889.05,500.64 L 888.61,501.31 L 888.38,501.59 L 887.86,501.86 L 887.58,501.96 L 886.92,502.00 L 885.68,501.98 L 884.81,501.98 L 883.11,501.76 L 882.72,501.69 L 882.07,501.52 L 881.77,501.43 M 934.28,501.19 L 934.16,501.12 L 933.97,500.71 L 933.87,500.46 L 933.71,499.66 L 933.64,499.20 L 933.52,497.96 L 933.46,497.28 L 933.37,495.56 L 933.33,494.63 L 933.28,492.37 L 933.26,491.17 L 933.24,488.34 L 933.23,486.85 L 933.24,483.39 L 933.28,477.46 L 933.50,454.50 L 937.25,454.19 L 941.00,453.88 L 941.00,473.40 L 941.00,492.92 L 950.25,493.21 L 959.50,493.50 L 959.81,497.75 L 960.11,502.00 L 947.81,501.98 L 946.12,501.98 L 942.93,501.92 L 941.40,501.88 L 938.76,501.75 L 937.53,501.67 L 935.72,501.50 L 935.34,501.45 L 934.77,501.35 L 934.53,501.30 M 974.67,501.33 L 974.62,501.29 L 974.53,500.72 L 974.49,500.37 L 974.41,499.24 L 974.37,498.61 L 974.29,496.97 L 974.26,496.10 L 974.20,494.02 L 974.17,492.94 L 974.11,490.49 L 974.09,489.23 L 974.05,486.47 L 974.00,477.38 L 974.00,454.09 L 977.25,453.49 L 977.70,453.41 L 979.34,453.29 L 980.26,453.23 L 982.63,453.16 L 983.88,453.14 L 986.67,453.13 L 991.00,453.20 L 1001.50,453.50 L 1001.81,457.75 L 1002.11,462.00 L 992.06,462.00 L 982.00,462.00 L 982.00,467.00 L 982.00,472.00 L 991.50,472.00 L 1001.00,472.00 L 1001.00,476.50 L 1001.00,481.00 L 991.50,481.00 L 982.00,481.00 L 982.00,486.97 L 982.00,492.93 L 992.25,493.22 L 1002.50,493.50 L 1002.81,497.75 L 1003.11,502.00 L 989.22,502.00 L 987.31,502.00 L 983.78,501.95 L 982.08,501.91 L 979.22,501.80 L 978.56,501.77 L 977.42,501.71 L 976.88,501.67 L 976.02,501.59 L 975.63,501.55 L 975.08,501.47 L 974.85,501.42 M 1017.67,501.33 L 1017.62,501.29 L 1017.53,500.72 L 1017.49,500.37 L 1017.41,499.24 L 1017.37,498.61 L 1017.29,496.97 L 1017.26,496.10 L 1017.20,494.02 L 1017.17,492.94 L 1017.11,490.49 L 1017.09,489.23 L 1017.05,486.47 L 1017.00,477.38 L 1017.00,454.09 L 1020.62,453.41 L 1021.31,453.28 L 1022.98,453.13 L 1023.85,453.07 L 1025.76,453.06 L 1027.71,453.07 L 1031.83,453.45 L 1033.85,453.69 L 1037.39,454.43 L 1038.20,454.63 L 1039.53,455.08 L 1041.00,455.82 L 1041.34,456.06 L 1042.17,456.90 L 1042.59,457.37 L 1043.50,458.53 L 1046.00,462.55 L 1046.55,463.64 L 1047.32,465.50 L 1047.65,466.43 L 1048.07,468.45 L 1048.25,469.53 L 1048.42,472.31 L 1048.45,473.08 L 1048.48,474.87 L 1048.50,478.00 L 1048.50,479.13 L 1048.48,481.07 L 1048.47,482.00 L 1048.42,483.61 L 1048.35,485.15 L 1048.08,487.48 L 1047.91,488.57 L 1047.37,490.43 L 1046.14,493.28 L 1045.72,494.14 L 1044.84,495.62 L 1044.38,496.32 L 1043.38,497.52 L 1042.86,498.09 L 1041.70,499.04 L 1041.09,499.48 L 1039.71,500.20 L 1038.99,500.53 L 1037.35,501.04 L 1036.49,501.27 L 1034.53,501.60 L 1033.50,501.74 L 1031.17,501.91 L 1027.21,502.00 L 1025.99,502.00 L 1023.71,501.95 L 1022.61,501.91 L 1020.74,501.80 L 1019.88,501.74 L 1018.63,501.59 L 1018.10,501.51 M 1038.63,490.44 L 1038.87,490.08 L 1039.30,489.06 L 1039.50,488.50 L 1039.87,487.15 L 1040.21,485.74 L 1040.66,482.27 L 1040.84,480.48 L 1040.92,476.73 L 1040.55,471.48 L 1040.42,470.64 L 1040.07,469.13 L 1039.88,468.41 L 1039.39,467.15 L 1039.13,466.55 L 1038.49,465.51 L 1038.15,465.02 L 1037.34,464.21 L 1036.92,463.82 L 1035.95,463.22 L 1035.44,462.94 L 1034.28,462.53 L 1033.67,462.35 L 1032.31,462.13 L 1030.05,462.00 L 1025.00,462.00 L 1025.00,477.33 L 1025.00,479.44 L 1025.03,483.32 L 1025.05,485.17 L 1025.12,488.28 L 1025.14,489.00 L 1025.18,490.22 L 1025.21,490.80 L 1025.25,491.71 L 1025.28,492.13 L 1025.33,492.69 L 1025.41,493.08 L 1025.47,493.14 L 1026.02,493.22 L 1026.35,493.25 L 1027.36,493.28 L 1027.91,493.28 L 1029.24,493.26 L 1031.45,493.16 L 1032.60,493.08 L 1034.34,492.88 L 1035.13,492.77 L 1036.29,492.42 L 1036.82,492.22 L 1037.62,491.64 L 1037.99,491.32 M 1113.67,501.33 L 1113.62,501.29 L 1113.53,500.72 L 1113.49,500.37 L 1113.41,499.24 L 1113.37,498.61 L 1113.29,496.97 L 1113.26,496.10 L 1113.20,494.02 L 1113.17,492.94 L 1113.11,490.49 L 1113.09,489.23 L 1113.05,486.47 L 1113.00,477.38 L 1113.00,454.09 L 1116.31,453.47 L 1116.77,453.38 L 1118.42,453.25 L 1119.35,453.20 L 1121.72,453.13 L 1122.96,453.10 L 1125.75,453.10 L 1130.06,453.17 L 1140.50,453.50 L 1140.81,457.75 L 1141.11,462.00 L 1131.06,462.00 L 1121.00,462.00 L 1121.00,466.96 L 1121.00,471.92 L 1130.25,472.21 L 1139.50,472.50 L 1139.50,476.50 L 1139.50,480.50 L 1130.20,480.79 L 1120.91,481.08 L 1121.20,487.15 L 1121.50,493.22 L 1131.50,493.36 L 1141.50,493.50 L 1141.81,497.75 L 1142.11,502.00 L 1128.22,502.00 L 1126.31,502.00 L 1122.78,501.95 L 1121.08,501.91 L 1118.22,501.80 L 1117.56,501.77 L 1116.42,501.71 L 1115.88,501.67 L 1115.02,501.59 L 1114.63,501.55 L 1114.08,501.47 L 1113.85,501.42 M 1251.75,501.42 L 1251.70,501.37 L 1251.60,500.79 L 1251.55,500.43 L 1251.46,499.29 L 1251.41,498.65 L 1251.33,497.01 L 1251.29,496.13 L 1251.22,494.05 L 1251.19,492.96 L 1251.13,490.50 L 1251.10,489.24 L 1251.06,486.48 L 1251.00,477.38 L 1251.00,454.09 L 1254.62,453.41 L 1255.25,453.29 L 1256.76,453.15 L 1257.55,453.09 L 1259.28,453.07 L 1261.06,453.08 L 1264.86,453.40 L 1266.74,453.60 L 1270.18,454.26 L 1270.98,454.44 L 1272.37,454.85 L 1274.06,455.53 L 1274.60,455.81 L 1275.61,456.59 L 1276.11,457.02 L 1277.06,458.13 L 1277.53,458.72 L 1278.44,460.19 L 1279.80,462.82 L 1280.36,464.03 L 1281.15,466.10 L 1281.50,467.11 L 1281.95,469.19 L 1282.15,470.28 L 1282.34,472.90 L 1282.38,473.61 L 1282.43,475.22 L 1282.46,478.00 L 1282.46,479.02 L 1282.45,480.80 L 1282.44,481.65 L 1282.39,483.11 L 1282.33,484.52 L 1282.05,486.70 L 1281.88,487.72 L 1281.30,489.54 L 1280.00,492.45 L 1279.52,493.41 L 1278.59,495.04 L 1278.13,495.81 L 1277.19,497.09 L 1276.71,497.70 L 1275.67,498.68 L 1275.14,499.14 L 1273.92,499.87 L 1273.29,500.20 L 1271.82,500.71 L 1271.05,500.94 L 1269.24,501.28 L 1268.29,501.43 L 1266.07,501.63 L 1262.18,501.84 L 1260.85,501.88 L 1258.36,501.91 L 1257.17,501.91 L 1255.12,501.85 L 1254.18,501.81 L 1252.80,501.68 L 1252.22,501.61 M 1271.75,490.43 L 1272.25,489.87 L 1272.94,488.79 L 1273.25,488.21 L 1273.62,486.74 L 1273.70,486.32 L 1273.81,485.33 L 1273.86,484.81 L 1273.93,483.55 L 1273.96,482.89 L 1273.99,481.30 L 1274.00,478.49 L 1274.00,477.20 L 1273.91,474.65 L 1273.86,473.40 L 1273.67,471.14 L 1273.57,470.07 L 1273.32,468.34 L 1272.89,466.66 L 1272.54,465.90 L 1271.47,464.64 L 1270.87,464.06 L 1269.32,463.19 L 1268.48,462.79 L 1266.47,462.30 L 1262.95,462.00 L 1259.00,462.00 L 1259.00,477.93 L 1259.00,493.86 L 1264.25,493.42 L 1265.26,493.33 L 1266.88,493.08 L 1267.63,492.94 L 1268.86,492.53 L 1269.44,492.30 L 1270.42,491.67 L 1270.89,491.33 M 1293.99,500.75 L 1293.99,500.63 L 1294.14,499.92 L 1294.23,499.49 L 1294.56,498.24 L 1294.74,497.55 L 1295.21,495.84 L 1295.46,494.93 L 1296.06,492.84 L 1296.37,491.76 L 1297.07,489.37 L 1297.43,488.14 L 1298.21,485.53 L 1299.00,482.89 L 1300.70,477.28 L 1301.56,474.48 L 1303.25,469.06 L 1303.66,467.75 L 1304.44,465.27 L 1304.83,464.06 L 1305.54,461.85 L 1305.89,460.79 L 1306.50,458.93 L 1306.80,458.05 L 1307.29,456.62 L 1307.52,455.96 L 1307.87,455.04 L 1308.19,454.33 L 1308.29,454.20 L 1308.74,453.99 L 1309.00,453.90 L 1309.70,453.74 L 1310.45,453.60 L 1312.31,453.50 L 1313.24,453.48 L 1314.92,453.63 L 1315.29,453.69 L 1315.88,453.84 L 1316.43,454.16 L 1316.46,454.19 L 1316.67,454.77 L 1316.80,455.13 L 1317.19,456.30 L 1317.41,456.95 L 1317.95,458.62 L 1318.24,459.51 L 1318.91,461.60 L 1319.25,462.69 L 1320.02,465.11 L 1320.41,466.35 L 1321.25,469.01 L 1322.10,471.72 L 1323.89,477.49 L 1324.79,480.38 L 1326.52,485.99 L 1326.93,487.35 L 1327.72,489.92 L 1328.10,491.17 L 1328.79,493.45 L 1329.12,494.56 L 1329.70,496.47 L 1329.97,497.38 L 1330.39,498.85 L 1330.59,499.51 L 1330.84,500.44 L 1331.00,501.11 L 1331.00,501.25 L 1330.74,501.47 L 1330.57,501.57 L 1330.03,501.73 L 1329.44,501.87 L 1327.78,501.96 L 1326.93,501.98 L 1325.25,501.80 L 1323.43,501.23 L 1323.28,501.13 L 1322.91,500.57 L 1322.71,500.24 L 1322.28,499.31 L 1321.03,495.71 L 1319.72,490.92 L 1312.19,491.21 L 1304.66,491.50 L 1303.20,496.75 L 1303.02,497.40 L 1302.72,498.46 L 1302.57,498.96 L 1302.30,499.75 L 1302.03,500.49 L 1301.43,501.32 L 1301.09,501.65 L 1300.11,501.91 L 1297.87,502.00 L 1297.27,502.00 L 1296.24,501.91 L 1295.77,501.86 L 1295.02,501.67 L 1294.69,501.56 L 1294.26,501.28 L 1294.08,501.12 M 1316.76,481.75 L 1316.70,481.58 L 1316.44,480.73 L 1316.30,480.23 L 1315.91,478.87 L 1315.70,478.14 L 1315.23,476.44 L 1314.49,473.71 L 1314.25,472.78 L 1313.73,471.14 L 1313.48,470.36 L 1313.00,469.15 L 1312.77,468.60 L 1312.38,467.94 L 1311.95,467.71 L 1311.84,467.83 L 1311.52,468.49 L 1311.35,468.88 L 1310.95,469.96 L 1310.54,471.12 L 1309.63,474.11 L 1309.20,475.63 L 1308.49,478.49 L 1308.34,479.14 L 1308.13,480.23 L 1308.00,481.40 L 1308.00,481.71 L 1308.22,482.17 L 1308.37,482.38 L 1308.97,482.66 L 1309.33,482.79 L 1310.39,482.92 L 1312.61,483.00 L 1313.42,483.00 L 1314.68,482.93 L 1315.24,482.88 L 1316.03,482.71 L 1316.36,482.61 L 1316.71,482.32 L 1316.83,482.16 M 1348.67,501.33 L 1348.62,501.29 L 1348.53,500.81 L 1348.49,500.50 L 1348.41,499.55 L 1348.37,499.02 L 1348.29,497.66 L 1348.26,496.93 L 1348.20,495.20 L 1348.17,494.29 L 1348.11,492.26 L 1348.09,491.21 L 1348.05,488.92 L 1348.00,481.39 L 1348.00,462.10 L 1342.75,461.80 L 1342.09,461.76 L 1341.02,461.70 L 1340.51,461.66 L 1339.71,461.57 L 1338.97,461.47 L 1338.12,461.08 L 1337.77,460.84 L 1337.45,459.98 L 1337.20,457.88 L 1337.15,457.30 L 1337.14,456.34 L 1337.15,455.90 L 1337.36,455.17 L 1337.50,454.84 L 1338.03,454.31 L 1338.35,454.07 L 1339.33,453.72 L 1339.89,453.56 L 1341.43,453.34 L 1342.29,453.25 L 1344.51,453.13 L 1345.71,453.08 L 1348.72,453.04 L 1354.25,453.01 L 1367.00,453.00 L 1367.00,457.50 L 1367.00,462.00 L 1361.50,462.00 L 1356.00,462.00 L 1356.00,482.00 L 1356.00,502.00 L 1352.67,502.00 L 1351.75,502.00 L 1350.12,501.80 L 1349.75,501.74 L 1349.19,501.59 L 1348.94,501.51 M 1373.48,500.96 L 1373.44,500.90 L 1373.51,500.29 L 1373.56,499.91 L 1373.81,498.74 L 1373.96,498.10 L 1374.36,496.45 L 1374.58,495.57 L 1375.12,493.53 L 1375.40,492.47 L 1376.04,490.11 L 1376.37,488.90 L 1377.10,486.31 L 1377.84,483.67 L 1379.47,478.05 L 1380.29,475.24 L 1381.94,469.76 L 1382.34,468.43 L 1383.12,465.90 L 1383.51,464.67 L 1384.22,462.41 L 1384.57,461.31 L 1385.21,459.39 L 1385.51,458.48 L 1386.03,456.98 L 1386.28,456.29 L 1386.67,455.30 L 1387.08,454.47 L 1387.32,454.15 L 1388.45,453.69 L 1389.08,453.48 L 1390.63,453.27 L 1391.42,453.19 L 1392.92,453.27 L 1394.59,453.77 L 1394.65,453.81 L 1394.93,454.38 L 1395.08,454.74 L 1395.53,455.89 L 1395.77,456.53 L 1396.37,458.18 L 1396.69,459.05 L 1397.41,461.11 L 1397.78,462.18 L 1398.59,464.57 L 1399.01,465.79 L 1399.89,468.42 L 1400.78,471.10 L 1402.66,476.82 L 1403.59,479.68 L 1405.38,485.29 L 1405.81,486.65 L 1406.62,489.24 L 1407.01,490.50 L 1407.73,492.83 L 1408.07,493.96 L 1408.66,495.94 L 1408.94,496.89 L 1409.38,498.44 L 1409.58,499.16 L 1409.84,500.21 L 1410.00,501.11 L 1410.00,501.28 L 1409.71,501.55 L 1409.53,501.67 L 1408.95,501.83 L 1408.31,501.97 L 1406.55,501.97 L 1405.65,501.93 L 1403.93,501.60 L 1403.54,501.49 L 1402.89,501.23 L 1402.23,500.75 L 1402.09,500.58 L 1401.73,499.93 L 1401.54,499.56 L 1401.13,498.61 L 1399.93,495.21 L 1398.66,490.92 L 1391.16,491.21 L 1383.66,491.50 L 1382.20,496.75 L 1382.03,497.37 L 1381.73,498.41 L 1381.58,498.89 L 1381.31,499.67 L 1381.05,500.40 L 1380.48,501.24 L 1380.16,501.59 L 1379.31,501.88 L 1377.43,502.00 L 1376.52,502.00 L 1374.90,501.69 L 1374.54,501.60 L 1373.99,501.36 L 1373.74,501.24 M 1395.76,481.75 L 1395.70,481.58 L 1395.44,480.73 L 1395.30,480.23 L 1394.91,478.87 L 1394.70,478.14 L 1394.23,476.44 L 1393.49,473.71 L 1393.25,472.78 L 1392.73,471.14 L 1392.48,470.36 L 1392.00,469.15 L 1391.77,468.60 L 1391.38,467.94 L 1390.95,467.71 L 1390.84,467.83 L 1390.52,468.49 L 1390.35,468.88 L 1389.95,469.96 L 1389.54,471.12 L 1388.63,474.11 L 1388.20,475.63 L 1387.49,478.49 L 1387.34,479.14 L 1387.13,480.23 L 1387.00,481.40 L 1387.00,481.71 L 1387.22,482.17 L 1387.37,482.38 L 1387.97,482.66 L 1388.33,482.79 L 1389.39,482.92 L 1391.61,483.00 L 1392.42,483.00 L 1393.68,482.93 L 1394.24,482.88 L 1395.03,482.71 L 1395.36,482.61 L 1395.71,482.32 L 1395.83,482.16 M 1447.71,501.38 L 1447.66,501.33 L 1447.57,500.76 L 1447.52,500.40 L 1447.44,499.27 L 1447.39,498.63 L 1447.32,496.99 L 1447.28,496.11 L 1447.21,494.04 L 1447.18,492.95 L 1447.12,490.50 L 1447.10,489.23 L 1447.06,486.48 L 1447.00,477.38 L 1447.00,454.09 L 1450.25,453.49 L 1450.70,453.41 L 1452.26,453.28 L 1453.13,453.23 L 1455.34,453.16 L 1463.00,453.20 L 1472.50,453.50 L 1472.81,457.75 L 1473.11,462.00 L 1464.06,462.00 L 1455.00,462.00 L 1455.00,467.46 L 1455.00,472.92 L 1462.75,473.21 L 1470.50,473.50 L 1470.50,477.50 L 1470.50,481.50 L 1462.79,481.79 L 1455.07,482.08 L 1454.79,491.79 L 1454.50,501.50 L 1451.46,501.80 L 1450.63,501.88 L 1449.11,501.80 L 1448.77,501.76 L 1448.23,501.63 L 1447.99,501.56 M 1487.67,501.33 L 1487.62,501.29 L 1487.53,500.72 L 1487.49,500.37 L 1487.41,499.23 L 1487.37,498.60 L 1487.29,496.96 L 1487.26,496.09 L 1487.20,494.01 L 1487.17,492.92 L 1487.11,490.47 L 1487.09,489.20 L 1487.05,486.45 L 1487.00,477.33 L 1487.00,454.00 L 1491.00,454.00 L 1495.00,454.00 L 1495.00,473.75 L 1495.00,493.50 L 1504.25,493.50 L 1513.50,493.50 L 1513.81,497.75 L 1514.11,502.00 L 1501.22,502.00 L 1499.45,502.00 L 1496.17,501.95 L 1494.59,501.91 L 1491.92,501.80 L 1490.70,501.74 L 1488.94,501.59 L 1488.58,501.55 L 1488.06,501.47 L 1487.85,501.42 M 1582.01,499.75 L 1581.94,499.59 L 1581.72,498.82 L 1581.60,498.36 L 1581.30,497.07 L 1581.14,496.37 L 1580.76,494.63 L 1580.56,493.72 L 1580.13,491.62 L 1579.68,489.44 L 1578.67,484.35 L 1578.16,481.73 L 1577.11,476.22 L 1576.59,473.47 L 1575.62,468.19 L 1575.38,466.91 L 1574.96,464.51 L 1574.75,463.34 L 1574.38,461.21 L 1574.21,460.19 L 1573.92,458.42 L 1573.79,457.59 L 1573.59,456.25 L 1573.50,455.64 L 1573.41,454.82 L 1573.41,454.25 L 1573.46,454.21 L 1573.83,454.08 L 1574.05,454.01 L 1574.70,453.84 L 1577.33,453.33 L 1577.84,453.25 L 1578.67,453.08 L 1579.06,453.00 L 1579.67,452.99 L 1579.96,453.01 L 1580.42,453.33 L 1580.64,453.54 L 1581.03,454.37 L 1581.23,454.86 L 1581.61,456.37 L 1581.80,457.23 L 1582.25,459.60 L 1582.36,460.25 L 1582.62,461.76 L 1582.76,462.54 L 1583.05,464.32 L 1583.21,465.25 L 1583.55,467.32 L 1584.13,470.80 L 1584.44,472.63 L 1585.05,475.86 L 1585.35,477.39 L 1585.90,479.81 L 1586.04,480.36 L 1586.28,481.25 L 1586.39,481.66 L 1586.60,482.26 L 1586.69,482.52 L 1586.85,482.79 L 1587.03,482.80 L 1587.08,482.71 L 1587.22,482.26 L 1587.30,481.99 L 1587.51,481.21 L 1587.62,480.79 L 1587.88,479.73 L 1588.02,479.16 L 1588.33,477.86 L 1588.64,476.50 L 1589.36,473.22 L 1590.50,467.80 L 1590.84,466.17 L 1591.40,463.47 L 1591.67,462.20 L 1592.13,460.15 L 1592.35,459.20 L 1592.73,457.71 L 1592.92,457.02 L 1593.28,455.99 L 1593.46,455.52 L 1593.82,454.86 L 1594.00,454.56 L 1594.40,454.17 L 1595.91,453.56 L 1597.25,453.28 L 1599.86,453.30 L 1600.45,453.35 L 1601.43,453.58 L 1602.43,454.09 L 1602.46,454.13 L 1602.57,454.45 L 1602.64,454.66 L 1602.81,455.30 L 1602.91,455.66 L 1603.13,456.58 L 1603.25,457.08 L 1603.51,458.24 L 1603.79,459.46 L 1604.42,462.47 L 1605.45,467.54 L 1605.80,469.32 L 1606.49,472.77 L 1606.82,474.44 L 1607.43,477.43 L 1607.72,478.83 L 1608.18,481.01 L 1608.29,481.49 L 1608.45,482.23 L 1608.64,483.00 L 1608.69,483.22 L 1608.83,483.38 L 1608.91,483.42 L 1609.08,483.22 L 1609.18,483.08 L 1609.40,482.52 L 1609.51,482.19 L 1609.77,481.26 L 1609.91,480.75 L 1610.21,479.43 L 1610.37,478.73 L 1610.72,477.03 L 1610.91,476.13 L 1611.30,474.04 L 1611.96,470.45 L 1612.33,468.38 L 1613.05,464.53 L 1613.40,462.68 L 1614.03,459.53 L 1614.18,458.81 L 1614.44,457.55 L 1614.57,456.95 L 1614.79,455.99 L 1614.90,455.55 L 1615.06,454.92 L 1615.24,454.42 L 1615.43,454.12 L 1616.57,453.66 L 1617.22,453.46 L 1618.82,453.23 L 1619.62,453.16 L 1621.06,453.23 L 1621.38,453.27 L 1621.87,453.41 L 1622.34,453.74 L 1622.37,453.79 L 1622.35,454.30 L 1622.33,454.62 L 1622.22,455.61 L 1622.15,456.17 L 1621.95,457.59 L 1621.84,458.35 L 1621.56,460.15 L 1621.41,461.09 L 1621.06,463.21 L 1620.88,464.30 L 1620.47,466.67 L 1619.04,474.50 L 1618.52,477.25 L 1617.53,482.56 L 1617.04,485.14 L 1616.18,489.73 L 1615.98,490.80 L 1615.62,492.73 L 1615.45,493.65 L 1615.16,495.22 L 1615.02,495.95 L 1614.81,497.09 L 1614.59,498.25 L 1614.43,499.16 L 1614.12,500.37 L 1613.95,500.90 L 1613.42,501.49 L 1613.10,501.73 L 1612.06,501.93 L 1609.62,502.00 L 1605.34,502.00 L 1602.07,486.25 L 1601.62,484.08 L 1600.75,480.08 L 1600.32,478.16 L 1599.56,474.92 L 1599.39,474.17 L 1599.06,472.88 L 1598.91,472.28 L 1598.65,471.30 L 1598.53,470.86 L 1598.33,470.25 L 1598.13,469.78 L 1598.09,469.73 L 1597.93,469.97 L 1597.84,470.15 L 1597.61,470.80 L 1597.48,471.18 L 1597.18,472.20 L 1597.02,472.76 L 1596.67,474.11 L 1596.48,474.83 L 1596.08,476.46 L 1595.88,477.31 L 1595.45,479.19 L 1594.08,485.53 L 1590.70,502.00 L 1586.83,502.00 L 1586.06,502.00 L 1584.89,501.90 L 1584.35,501.83 L 1583.55,501.54 L 1583.19,501.37 L 1582.65,500.85 L 1582.40,500.56 M 775.35,385.37 L 774.46,385.06 L 772.85,384.32 L 772.07,383.93 L 770.61,382.99 L 769.90,382.48 L 768.54,381.23 L 767.87,380.56 L 766.54,378.92 L 765.87,378.04 L 764.51,375.93 L 763.81,374.80 L 762.34,372.12 L 761.58,370.70 L 759.94,367.37 L 757.21,361.54 L 750.00,345.78 L 758.34,332.64 L 759.48,330.83 L 761.83,327.08 L 762.99,325.22 L 765.17,321.67 L 766.22,319.96 L 767.99,317.02 L 768.40,316.34 L 769.09,315.17 L 769.91,313.75 L 770.35,312.96 L 771.19,311.52 L 771.59,310.83 L 772.28,309.69 L 772.60,309.17 L 773.06,308.45 L 773.43,308.00 L 773.45,308.00 L 773.61,308.31 L 773.72,308.51 L 774.04,309.18 L 774.22,309.57 L 774.67,310.57 L 774.92,311.11 L 775.49,312.41 L 776.10,313.77 L 777.58,317.18 L 780.07,323.01 L 780.95,325.07 L 782.61,328.82 L 783.42,330.60 L 784.82,333.53 L 785.15,334.19 L 785.73,335.32 L 786.00,335.85 L 786.46,336.66 L 786.68,337.02 L 787.00,337.48 L 787.30,337.73 L 787.33,337.72 L 787.48,337.51 L 787.57,337.37 L 787.82,336.92 L 788.11,336.41 L 788.98,334.70 L 789.46,333.75 L 790.70,331.23 L 791.35,329.89 L 792.90,326.67 L 793.71,324.98 L 795.52,321.16 L 796.46,319.18 L 798.49,314.85 L 799.52,312.63 L 801.72,307.90 L 805.14,300.47 L 806.90,296.66 L 810.24,289.37 L 811.89,285.78 L 815.04,278.92 L 816.59,275.55 L 819.55,269.11 L 821.00,265.94 L 823.78,259.91 L 825.14,256.94 L 827.74,251.30 L 829.01,248.53 L 831.43,243.26 L 832.62,240.68 L 834.88,235.78 L 835.99,233.38 L 838.08,228.83 L 839.11,226.60 L 841.06,222.39 L 842.01,220.32 L 843.81,216.44 L 844.69,214.53 L 846.35,210.95 L 847.16,209.20 L 848.69,205.92 L 849.43,204.32 L 850.83,201.32 L 851.51,199.85 L 852.79,197.12 L 853.42,195.79 L 854.58,193.31 L 855.15,192.10 L 856.21,189.87 L 857.24,187.69 L 859.01,184.01 L 859.85,182.26 L 861.27,179.36 L 861.94,178.00 L 863.07,175.78 L 863.61,174.74 L 864.50,173.08 L 864.92,172.31 L 865.62,171.12 L 865.95,170.57 L 866.51,169.72 L 867.94,167.95 L 869.05,166.79 L 871.54,165.00 L 872.85,164.20 L 875.85,163.11 L 877.43,162.65 L 881.09,162.21 L 887.50,162.23 L 888.55,162.30 L 890.46,162.50 L 891.38,162.61 L 893.04,162.91 L 894.64,163.24 L 897.24,164.26 L 898.47,164.84 L 900.49,166.46 L 903.16,169.68 L 903.23,169.78 L 903.48,170.25 L 903.63,170.53 L 904.04,171.35 L 904.27,171.81 L 904.84,172.97 L 905.14,173.59 L 905.85,175.07 L 906.22,175.84 L 907.07,177.62 L 907.51,178.55 L 908.49,180.61 L 909.00,181.68 L 910.10,184.01 L 910.66,185.21 L 911.87,187.79 L 913.11,190.42 L 915.89,196.37 L 917.33,199.45 L 920.45,206.17 L 922.05,209.61 L 925.46,216.96 L 927.20,220.70 L 930.82,228.54 L 932.66,232.51 L 936.44,240.70 L 938.34,244.83 L 942.21,253.23 L 946.09,261.67 L 953.84,278.57 L 955.75,282.76 L 959.50,290.96 L 961.35,295.03 L 964.93,302.89 L 966.69,306.76 L 970.04,314.14 L 974.72,324.50 L 975.47,326.15 L 976.89,329.23 L 977.58,330.70 L 978.79,333.23 L 979.36,334.39 L 980.22,336.08 L 980.41,336.43 L 980.69,336.94 L 980.97,337.36 L 981.09,337.48 L 981.40,337.51 L 981.56,337.50 L 981.93,337.29 L 983.04,335.92 L 983.09,335.84 L 983.35,335.26 L 983.52,334.90 L 984.02,333.78 L 984.30,333.16 L 985.03,331.54 L 985.42,330.66 L 986.35,328.56 L 986.84,327.45 L 987.97,324.89 L 988.56,323.56 L 989.87,320.59 L 990.55,319.05 L 992.04,315.68 L 992.80,313.95 L 994.44,310.21 L 995.28,308.30 L 997.07,304.24 L 997.98,302.16 L 999.90,297.79 L 1000.88,295.56 L 1002.92,290.91 L 1003.95,288.55 L 1006.10,283.65 L 1008.28,278.69 L 1012.89,268.15 L 1020.12,251.64 L 1021.58,248.28 L 1024.40,241.85 L 1025.79,238.68 L 1028.44,232.64 L 1029.75,229.67 L 1032.25,224.02 L 1033.47,221.24 L 1035.80,215.98 L 1036.95,213.40 L 1039.11,208.53 L 1040.17,206.15 L 1042.17,201.68 L 1043.15,199.49 L 1044.98,195.42 L 1045.88,193.44 L 1047.54,189.77 L 1048.35,187.99 L 1049.84,184.73 L 1050.57,183.15 L 1051.89,180.30 L 1052.53,178.93 L 1053.68,176.49 L 1054.23,175.32 L 1055.21,173.29 L 1055.67,172.33 L 1056.47,170.72 L 1056.85,169.97 L 1057.48,168.79 L 1057.77,168.24 L 1058.21,167.48 L 1058.68,166.81 L 1059.56,165.89 L 1061.73,164.46 L 1062.88,163.82 L 1065.62,162.93 L 1067.07,162.55 L 1070.41,162.20 L 1076.14,162.25 L 1078.17,162.39 L 1081.98,163.15 L 1083.83,163.60 L 1087.10,164.87 L 1088.63,165.56 L 1091.08,167.23 L 1091.63,167.67 L 1092.52,168.60 L 1093.53,170.05 L 1093.94,170.85 L 1094.54,172.33 L 1094.79,173.10 L 1094.95,174.84 L 1094.96,175.32 L 1094.86,176.39 L 1094.79,176.95 L 1094.52,178.25 L 1094.36,178.93 L 1093.91,180.50 L 1093.66,181.32 L 1093.01,183.22 L 1092.65,184.21 L 1091.77,186.50 L 1091.30,187.70 L 1090.17,190.42 L 1089.58,191.85 L 1088.19,195.07 L 1087.46,196.75 L 1085.78,200.53 L 1084.91,202.49 L 1082.93,206.88 L 1081.90,209.16 L 1079.59,214.21 L 1078.40,216.83 L 1075.75,222.60 L 1071.37,232.13 L 1069.74,235.66 L 1066.18,243.40 L 1064.36,247.36 L 1060.51,255.75 L 1058.55,260.00 L 1054.52,268.77 L 1052.49,273.18 L 1048.40,282.07 L 1046.37,286.50 L 1042.35,295.24 L 1040.36,299.57 L 1036.54,307.89 L 1034.66,311.98 L 1031.16,319.61 L 1030.31,321.46 L 1028.68,325.00 L 1026.39,330.00 L 1025.18,332.64 L 1022.95,337.48 L 1021.87,339.83 L 1019.88,344.13 L 1018.92,346.21 L 1017.16,350.01 L 1016.31,351.85 L 1014.75,355.17 L 1014.00,356.78 L 1012.64,359.67 L 1011.98,361.07 L 1010.78,363.56 L 1010.20,364.76 L 1009.16,366.89 L 1008.65,367.92 L 1007.74,369.72 L 1007.30,370.58 L 1006.50,372.10 L 1006.12,372.82 L 1005.42,374.07 L 1004.74,375.27 L 1003.60,377.06 L 1003.05,377.87 L 1002.06,379.09 L 1000.59,380.60 L 999.16,381.91 L 996.28,383.87 L 994.80,384.74 L 991.56,385.89 L 990.71,386.13 L 988.88,386.48 L 987.94,386.63 L 985.90,386.82 L 984.84,386.89 L 982.55,386.92 L 978.76,386.80 L 976.38,386.67 L 972.30,386.04 L 970.36,385.66 L 967.08,384.50 L 965.53,383.85 L 962.93,382.10 L 959.65,378.76 L 959.56,378.65 L 959.28,378.18 L 959.13,377.90 L 958.71,377.12 L 958.48,376.70 L 957.92,375.63 L 957.63,375.05 L 956.96,373.71 L 956.60,373.00 L 955.81,371.39 L 955.40,370.56 L 954.50,368.71 L 953.58,366.81 L 951.45,362.36 L 950.34,360.03 L 947.88,354.85 L 946.63,352.18 L 943.92,346.39 L 942.54,343.44 L 939.65,337.21 L 935.18,327.50 L 933.88,324.66 L 931.38,319.19 L 930.14,316.49 L 927.76,311.30 L 926.58,308.74 L 924.32,303.81 L 923.21,301.38 L 921.07,296.72 L 920.02,294.43 L 918.00,290.02 L 917.00,287.85 L 915.09,283.69 L 913.21,279.60 L 909.78,272.13 L 908.11,268.51 L 905.09,261.95 L 903.63,258.78 L 900.99,253.07 L 899.72,250.32 L 897.45,245.42 L 896.36,243.06 L 894.43,238.91 L 893.50,236.92 L 891.88,233.46 L 891.11,231.81 L 889.77,228.99 L 889.14,227.65 L 888.07,225.42 L 887.57,224.37 L 886.74,222.68 L 886.35,221.89 L 885.73,220.67 L 885.45,220.12 L 885.01,219.32 L 884.82,218.98 L 884.55,218.56 L 884.31,218.29 L 884.28,218.28 L 884.03,218.67 L 883.88,218.94 L 883.40,219.86 L 883.13,220.38 L 882.42,221.79 L 882.04,222.56 L 881.12,224.44 L 880.63,225.44 L 879.51,227.77 L 878.92,228.99 L 877.61,231.73 L 876.93,233.15 L 875.45,236.28 L 874.68,237.89 L 873.03,241.39 L 872.19,243.18 L 870.39,247.00 L 869.47,248.96 L 867.54,253.09 L 866.55,255.20 L 864.49,259.61 L 863.45,261.85 L 861.28,266.53 L 859.08,271.25 L 854.40,281.36 L 847.07,297.27 L 845.83,299.96 L 843.47,305.08 L 842.31,307.60 L 840.10,312.40 L 839.02,314.77 L 836.95,319.26 L 835.93,321.47 L 834.00,325.66 L 833.05,327.72 L 831.24,331.62 L 830.35,333.53 L 828.67,337.16 L 827.84,338.93 L 826.28,342.29 L 825.51,343.93 L 824.06,347.03 L 822.63,350.07 L 820.09,355.41 L 818.86,357.97 L 816.69,362.43 L 815.64,364.56 L 813.78,368.21 L 812.89,369.94 L 811.31,372.88 L 810.55,374.27 L 809.20,376.57 L 808.55,377.66 L 807.37,379.42 L 806.81,380.24 L 805.77,381.54 L 805.26,382.14 L 804.30,383.07 L 803.36,383.93 L 801.53,384.88 L 798.50,385.88 L 797.80,386.07 L 796.12,386.37 L 795.23,386.51 L 793.25,386.70 L 791.21,386.86 L 786.72,386.86 L 784.48,386.82 L 780.29,386.41 L 779.31,386.29 L 777.55,385.96 L 776.72,385.79 M 1120.33,385.54 L 1119.45,385.16 L 1117.55,383.75 L 1115.33,381.37 L 1115.11,381.04 L 1114.75,380.17 L 1114.58,379.66 L 1114.31,378.01 L 1114.25,377.52 L 1114.14,376.32 L 1114.08,375.67 L 1113.99,374.09 L 1113.94,373.24 L 1113.87,371.22 L 1113.83,370.14 L 1113.76,367.60 L 1113.73,366.26 L 1113.68,363.15 L 1113.66,361.52 L 1113.62,357.76 L 1113.60,355.79 L 1113.58,351.32 L 1113.56,349.00 L 1113.54,343.75 L 1113.53,341.02 L 1113.52,334.93 L 1113.51,331.78 L 1113.51,324.78 L 1113.50,321.16 L 1113.50,313.18 L 1113.50,311.12 L 1113.50,306.81 L 1113.50,300.04 L 1113.50,297.72 L 1113.50,293.26 L 1113.50,291.07 L 1113.50,286.88 L 1113.50,282.76 L 1113.51,275.27 L 1113.51,271.65 L 1113.52,265.10 L 1113.53,261.94 L 1113.54,256.28 L 1113.55,253.56 L 1113.57,248.71 L 1113.59,246.38 L 1113.62,242.28 L 1113.64,240.31 L 1113.68,236.89 L 1113.71,235.26 L 1113.76,232.45 L 1113.79,231.11 L 1113.87,228.85 L 1113.90,227.78 L 1113.99,225.99 L 1114.03,225.15 L 1114.14,223.77 L 1114.19,223.13 L 1114.31,222.10 L 1114.44,221.14 L 1114.75,219.97 L 1115.33,218.80 L 1115.98,217.85 L 1117.80,216.36 L 1118.81,215.68 L 1121.49,214.72 L 1122.22,214.51 L 1123.86,214.18 L 1124.72,214.03 L 1126.64,213.81 L 1127.63,213.72 L 1129.84,213.61 L 1133.50,213.56 L 1134.77,213.57 L 1137.09,213.67 L 1138.21,213.74 L 1140.24,213.96 L 1141.22,214.08 L 1142.97,214.42 L 1143.81,214.60 L 1145.29,215.06 L 1146.00,215.31 L 1147.23,215.90 L 1147.81,216.21 L 1148.79,216.93 L 1149.25,217.30 L 1149.99,218.16 L 1150.86,219.60 L 1150.91,219.71 L 1151.01,220.18 L 1151.06,220.46 L 1151.15,221.28 L 1151.19,221.73 L 1151.27,222.90 L 1151.31,223.53 L 1151.39,225.07 L 1151.42,225.88 L 1151.49,227.80 L 1151.52,228.81 L 1151.58,231.13 L 1151.61,232.33 L 1151.67,235.05 L 1151.69,236.47 L 1151.74,239.61 L 1151.76,241.23 L 1151.80,244.80 L 1151.82,246.64 L 1151.86,250.66 L 1151.87,252.73 L 1151.90,257.20 L 1151.91,259.50 L 1151.94,264.45 L 1151.95,266.98 L 1151.97,272.41 L 1151.97,275.19 L 1151.98,281.12 L 1151.99,284.14 L 1152.00,290.58 L 1152.00,300.82 L 1152.00,303.55 L 1152.00,308.75 L 1152.00,311.30 L 1152.00,316.14 L 1152.00,318.52 L 1152.00,323.03 L 1152.01,325.24 L 1152.00,329.43 L 1152.00,331.48 L 1152.00,335.36 L 1152.00,337.26 L 1151.99,340.84 L 1151.99,342.59 L 1151.98,345.88 L 1151.97,347.49 L 1151.96,350.51 L 1151.94,353.47 L 1151.89,358.61 L 1151.85,361.06 L 1151.77,365.26 L 1151.72,367.26 L 1151.59,370.64 L 1151.52,372.23 L 1151.34,374.87 L 1151.24,376.11 L 1151.00,378.12 L 1150.88,379.05 L 1150.58,380.52 L 1150.42,381.20 L 1150.05,382.24 L 1149.85,382.71 L 1149.40,383.40 L 1148.92,384.03 L 1147.70,384.70 L 1145.40,385.61 L 1144.85,385.84 L 1143.24,386.21 L 1142.36,386.38 L 1140.23,386.63 L 1139.12,386.75 L 1136.66,386.88 L 1135.41,386.94 L 1132.82,386.96 L 1131.52,386.96 L 1128.98,386.86 L 1127.73,386.80 L 1125.43,386.59 L 1124.33,386.48 L 1122.45,386.15 L 1121.58,385.98 M 1182.66,384.90 L 1182.29,384.68 L 1181.61,384.04 L 1181.28,383.68 L 1180.70,382.81 L 1180.13,381.88 L 1179.26,379.47 L 1178.87,378.20 L 1178.36,375.30 L 1178.15,373.82 L 1178.01,370.71 L 1177.98,369.15 L 1178.20,366.11 L 1178.36,364.62 L 1178.95,361.91 L 1179.29,360.62 L 1180.26,358.53 L 1180.53,358.05 L 1181.13,357.27 L 1182.15,356.37 L 1182.19,356.34 L 1182.69,356.28 L 1183.01,356.25 L 1184.02,356.19 L 1184.59,356.15 L 1186.09,356.09 L 1186.90,356.05 L 1188.87,355.99 L 1189.90,355.95 L 1192.30,355.89 L 1193.55,355.85 L 1196.36,355.79 L 1197.81,355.75 L 1200.99,355.69 L 1202.63,355.65 L 1206.16,355.59 L 1207.97,355.55 L 1211.83,355.49 L 1213.80,355.46 L 1217.96,355.39 L 1222.18,355.33 L 1231.41,355.22 L 1236.14,355.16 L 1246.20,355.06 L 1262.00,354.92 L 1264.58,354.90 L 1269.52,354.87 L 1271.94,354.85 L 1276.57,354.81 L 1278.85,354.80 L 1283.18,354.76 L 1285.31,354.74 L 1289.37,354.71 L 1291.36,354.69 L 1295.14,354.66 L 1296.99,354.64 L 1300.51,354.60 L 1303.97,354.57 L 1310.14,354.49 L 1313.11,354.45 L 1318.38,354.36 L 1320.91,354.31 L 1325.36,354.20 L 1327.50,354.14 L 1331.22,354.01 L 1333.00,353.94 L 1336.08,353.78 L 1337.55,353.70 L 1340.07,353.51 L 1341.28,353.41 L 1343.33,353.18 L 1344.31,353.06 L 1345.98,352.80 L 1346.78,352.65 L 1348.15,352.34 L 1349.47,352.01 L 1351.59,351.19 L 1354.69,349.68 L 1355.37,349.32 L 1356.52,348.63 L 1357.06,348.27 L 1357.97,347.53 L 1358.39,347.14 L 1359.07,346.27 L 1359.39,345.81 L 1359.88,344.75 L 1360.10,344.19 L 1360.43,342.86 L 1360.58,342.16 L 1360.78,340.50 L 1360.86,339.62 L 1360.95,337.55 L 1361.00,333.91 L 1361.00,332.49 L 1360.94,330.07 L 1360.89,328.92 L 1360.71,326.98 L 1360.60,326.06 L 1360.25,324.51 L 1360.05,323.78 L 1359.50,322.54 L 1359.19,321.95 L 1358.38,320.95 L 1357.94,320.46 L 1356.84,319.61 L 1356.25,319.19 L 1354.81,318.40 L 1352.23,317.19 L 1351.22,316.76 L 1348.98,316.01 L 1347.80,315.66 L 1345.04,315.07 L 1343.58,314.79 L 1340.04,314.34 L 1339.09,314.23 L 1337.02,314.04 L 1335.94,313.95 L 1333.58,313.79 L 1332.36,313.71 L 1329.68,313.58 L 1328.30,313.52 L 1325.28,313.41 L 1323.73,313.36 L 1320.32,313.27 L 1318.57,313.23 L 1314.76,313.16 L 1312.80,313.13 L 1308.55,313.08 L 1306.37,313.06 L 1301.64,313.03 L 1299.21,313.02 L 1293.98,313.00 L 1285.53,312.99 L 1279.34,312.99 L 1267.37,312.91 L 1264.46,312.89 L 1258.93,312.82 L 1256.23,312.78 L 1251.22,312.70 L 1248.79,312.65 L 1244.44,312.55 L 1242.37,312.50 L 1238.83,312.39 L 1237.18,312.33 L 1234.60,312.20 L 1234.02,312.17 L 1233.07,312.10 L 1231.96,312.01 L 1229.53,311.73 L 1224.90,311.01 L 1222.62,310.62 L 1218.32,309.69 L 1216.21,309.20 L 1212.24,308.05 L 1210.29,307.46 L 1206.63,306.09 L 1204.84,305.39 L 1201.50,303.81 L 1199.87,303.00 L 1196.85,301.20 L 1195.38,300.28 L 1192.67,298.27 L 1188.96,295.00 L 1187.87,293.93 L 1185.96,291.78 L 1185.04,290.69 L 1183.43,288.46 L 1182.67,287.33 L 1181.37,284.99 L 1180.75,283.80 L 1179.73,281.29 L 1179.25,280.02 L 1178.50,277.31 L 1178.15,275.93 L 1177.65,272.98 L 1177.43,271.47 L 1177.16,268.23 L 1177.00,263.00 L 1177.00,261.10 L 1177.22,257.46 L 1177.37,255.67 L 1177.89,252.26 L 1178.18,250.58 L 1179.00,247.39 L 1179.45,245.82 L 1180.57,242.85 L 1181.16,241.39 L 1182.59,238.64 L 1183.34,237.28 L 1185.06,234.75 L 1185.97,233.50 L 1188.00,231.18 L 1189.06,230.04 L 1191.41,227.93 L 1192.62,226.90 L 1195.28,224.99 L 1196.65,224.07 L 1199.62,222.37 L 1201.15,221.55 L 1204.44,220.06 L 1206.12,219.34 L 1209.73,218.05 L 1211.57,217.44 L 1215.51,216.35 L 1217.51,215.84 L 1221.76,214.95 L 1223.93,214.54 L 1228.51,213.86 L 1235.75,213.05 L 1236.69,212.97 L 1238.86,212.82 L 1239.99,212.75 L 1242.50,212.62 L 1245.09,212.49 L 1251.01,212.31 L 1254.05,212.22 L 1260.52,212.11 L 1263.77,212.07 L 1270.29,212.05 L 1273.51,212.04 L 1279.57,212.10 L 1281.04,212.12 L 1283.80,212.17 L 1285.15,212.20 L 1287.63,212.28 L 1288.83,212.32 L 1290.97,212.41 L 1291.99,212.46 L 1293.72,212.58 L 1294.52,212.64 L 1295.78,212.78 L 1297.08,213.01 L 1297.73,213.19 L 1298.84,213.63 L 1299.37,213.88 L 1300.26,214.49 L 1300.68,214.82 L 1301.38,215.64 L 1301.71,216.09 L 1302.23,217.18 L 1302.47,217.77 L 1302.83,219.17 L 1302.99,219.92 L 1303.22,221.70 L 1303.32,222.63 L 1303.44,224.82 L 1303.50,228.63 L 1303.50,229.71 L 1303.49,231.52 L 1303.48,232.38 L 1303.43,233.79 L 1303.41,234.46 L 1303.32,235.55 L 1303.27,236.06 L 1303.12,236.91 L 1302.95,237.70 L 1302.37,238.83 L 1301.00,240.42 L 1298.50,242.89 L 1268.50,243.41 L 1266.53,243.44 L 1262.89,243.51 L 1261.11,243.55 L 1257.84,243.62 L 1256.24,243.66 L 1253.31,243.75 L 1251.89,243.79 L 1249.28,243.88 L 1248.01,243.93 L 1245.69,244.04 L 1244.56,244.09 L 1242.50,244.22 L 1240.50,244.35 L 1237.18,244.66 L 1235.61,244.84 L 1232.99,245.26 L 1231.74,245.49 L 1229.61,246.04 L 1224.00,248.29 L 1223.22,248.69 L 1221.87,249.53 L 1221.22,249.96 L 1220.10,250.89 L 1219.58,251.37 L 1218.70,252.42 L 1218.29,252.97 L 1217.62,254.17 L 1217.32,254.80 L 1216.86,256.18 L 1216.65,256.90 L 1216.39,258.50 L 1216.27,259.32 L 1216.18,261.16 L 1216.23,264.20 L 1216.27,265.14 L 1216.44,266.80 L 1216.54,267.61 L 1216.84,269.04 L 1217.17,270.43 L 1218.31,272.65 L 1218.98,273.70 L 1220.95,275.48 L 1221.50,275.92 L 1222.79,276.75 L 1225.02,278.00 L 1225.85,278.43 L 1227.66,279.15 L 1228.62,279.49 L 1230.93,280.06 L 1232.18,280.33 L 1235.32,280.77 L 1236.17,280.87 L 1238.08,281.05 L 1239.08,281.14 L 1241.31,281.30 L 1242.47,281.38 L 1245.06,281.52 L 1246.40,281.58 L 1249.38,281.70 L 1250.93,281.76 L 1254.36,281.86 L 1256.13,281.90 L 1260.04,281.99 L 1262.05,282.03 L 1266.48,282.10 L 1268.76,282.14 L 1273.75,282.21 L 1276.31,282.24 L 1281.90,282.30 L 1291.00,282.38 L 1294.12,282.41 L 1299.84,282.46 L 1302.63,282.48 L 1307.73,282.54 L 1310.20,282.57 L 1314.73,282.63 L 1316.92,282.66 L 1320.93,282.73 L 1322.87,282.77 L 1326.40,282.85 L 1328.11,282.89 L 1331.23,282.99 L 1332.74,283.04 L 1335.50,283.16 L 1336.83,283.22 L 1339.28,283.35 L 1341.65,283.50 L 1345.69,283.86 L 1347.63,284.06 L 1351.12,284.55 L 1352.83,284.82 L 1356.17,285.47 L 1361.50,286.64 L 1363.69,287.15 L 1367.89,288.45 L 1369.96,289.14 L 1373.90,290.80 L 1375.83,291.66 L 1379.45,293.64 L 1381.22,294.66 L 1384.49,296.93 L 1386.07,298.09 L 1388.93,300.60 L 1390.31,301.89 L 1392.72,304.63 L 1393.87,306.02 L 1395.79,308.94 L 1398.06,313.50 L 1398.59,314.84 L 1399.33,317.14 L 1399.65,318.30 L 1400.05,320.91 L 1400.13,321.62 L 1400.25,323.24 L 1400.30,324.10 L 1400.37,326.09 L 1400.40,327.15 L 1400.43,329.62 L 1400.45,334.00 L 1400.45,335.60 L 1400.43,338.33 L 1400.42,339.63 L 1400.37,341.84 L 1400.34,342.89 L 1400.25,344.69 L 1400.20,345.54 L 1400.06,347.02 L 1399.90,348.43 L 1399.36,350.74 L 1398.15,354.25 L 1397.57,355.70 L 1396.09,358.48 L 1395.30,359.85 L 1393.40,362.46 L 1392.41,363.74 L 1390.11,366.17 L 1388.92,367.36 L 1386.24,369.59 L 1384.86,370.67 L 1381.82,372.69 L 1380.26,373.67 L 1376.87,375.46 L 1375.14,376.33 L 1371.42,377.88 L 1365.50,379.92 L 1363.27,380.59 L 1359.46,381.70 L 1357.60,382.21 L 1353.94,383.03 L 1352.05,383.41 L 1347.72,384.00 L 1346.56,384.13 L 1343.96,384.36 L 1342.62,384.47 L 1339.58,384.66 L 1337.99,384.75 L 1334.41,384.90 L 1332.54,384.97 L 1328.30,385.09 L 1326.09,385.14 L 1321.11,385.23 L 1318.51,385.28 L 1312.68,385.35 L 1309.64,385.38 L 1302.85,385.44 L 1301.09,385.45 L 1297.37,385.48 L 1295.47,385.49 L 1291.48,385.51 L 1289.45,385.52 L 1285.17,385.54 L 1282.99,385.56 L 1278.41,385.58 L 1276.09,385.59 L 1271.20,385.61 L 1263.50,385.65 L 1259.98,385.66 L 1253.32,385.69 L 1250.05,385.70 L 1243.90,385.72 L 1240.88,385.73 L 1235.22,385.74 L 1232.45,385.74 L 1227.27,385.75 L 1224.74,385.75 L 1220.04,385.74 L 1217.74,385.74 L 1213.50,385.73 L 1211.43,385.72 L 1207.63,385.70 L 1205.79,385.69 L 1202.43,385.66 L 1200.81,385.65 L 1197.88,385.61 L 1196.46,385.59 L 1193.95,385.55 L 1192.74,385.52 L 1190.64,385.47 L 1189.63,385.44 L 1187.92,385.38 L 1187.11,385.35 L 1185.77,385.28 L 1185.16,385.25 L 1184.20,385.17 L 1183.76,385.13 L 1183.16,385.04 L 1182.91,384.99 M 1479.80,384.47 L 1476.38,384.00 L 1469.96,382.77 L 1466.82,382.11 L 1460.96,380.49 L 1458.11,379.63 L 1452.83,377.63 L 1450.27,376.58 L 1445.60,374.21 L 1443.34,372.98 L 1439.29,370.24 L 1437.34,368.83 L 1433.92,365.74 L 1432.29,364.15 L 1429.51,360.71 L 1426.11,355.18 L 1425.71,354.40 L 1424.91,352.56 L 1424.51,351.61 L 1423.76,349.61 L 1423.40,348.62 L 1422.79,346.71 L 1422.13,344.20 L 1422.04,343.78 L 1421.87,342.16 L 1421.79,341.24 L 1421.65,338.73 L 1421.58,337.37 L 1421.46,334.09 L 1421.40,332.37 L 1421.30,328.45 L 1421.25,326.43 L 1421.17,322.01 L 1421.14,319.75 L 1421.08,314.96 L 1421.03,310.11 L 1420.99,299.85 L 1420.99,294.71 L 1421.04,284.70 L 1421.06,282.26 L 1421.12,277.61 L 1421.15,275.33 L 1421.23,271.11 L 1421.27,269.06 L 1421.37,265.39 L 1421.42,263.64 L 1421.55,260.67 L 1421.61,259.28 L 1421.76,257.12 L 1422.01,254.96 L 1422.38,253.02 L 1423.48,249.30 L 1424.09,247.48 L 1425.68,244.01 L 1426.53,242.30 L 1428.58,239.09 L 1429.67,237.51 L 1432.19,234.55 L 1433.50,233.11 L 1436.48,230.42 L 1438.02,229.11 L 1441.44,226.70 L 1443.20,225.54 L 1447.05,223.42 L 1453.31,220.59 L 1455.64,219.67 L 1460.46,218.09 L 1462.92,217.34 L 1468.27,216.08 L 1471.04,215.49 L 1477.23,214.53 L 1478.85,214.31 L 1482.30,213.92 L 1484.06,213.73 L 1487.83,213.40 L 1489.75,213.24 L 1493.88,212.98 L 1495.99,212.85 L 1500.52,212.65 L 1502.84,212.55 L 1507.81,212.40 L 1510.35,212.33 L 1515.80,212.24 L 1518.58,212.19 L 1524.55,212.14 L 1527.60,212.13 L 1534.13,212.13 L 1537.47,212.13 L 1544.59,212.17 L 1556.00,212.28 L 1558.17,212.30 L 1562.27,212.35 L 1564.27,212.38 L 1568.05,212.43 L 1569.90,212.46 L 1573.38,212.52 L 1575.08,212.54 L 1578.27,212.60 L 1581.38,212.67 L 1586.83,212.80 L 1589.42,212.87 L 1593.92,213.03 L 1596.07,213.11 L 1599.75,213.29 L 1601.50,213.39 L 1604.49,213.61 L 1605.92,213.72 L 1608.35,213.97 L 1611.50,214.40 L 1615.30,215.00 L 1622.21,216.49 L 1625.56,217.28 L 1631.59,219.16 L 1634.51,220.15 L 1639.72,222.45 L 1642.22,223.65 L 1646.65,226.41 L 1648.77,227.84 L 1652.46,231.08 L 1654.23,232.77 L 1657.23,236.53 L 1658.66,238.48 L 1661.03,242.79 L 1663.92,249.92 L 1664.39,251.37 L 1665.04,254.10 L 1665.18,254.83 L 1665.41,256.47 L 1665.51,257.33 L 1665.67,259.37 L 1665.74,260.46 L 1665.84,263.09 L 1665.88,264.49 L 1665.94,267.88 L 1665.96,269.68 L 1665.99,274.01 L 1665.99,275.16 L 1666.00,277.67 L 1666.00,281.76 L 1666.00,283.59 L 1665.99,286.93 L 1665.99,288.54 L 1665.97,291.49 L 1665.96,292.91 L 1665.92,295.49 L 1665.90,296.73 L 1665.84,298.97 L 1665.80,300.05 L 1665.71,301.97 L 1665.66,302.90 L 1665.53,304.54 L 1665.39,306.12 L 1664.97,308.54 L 1664.74,309.64 L 1664.10,311.29 L 1663.75,312.04 L 1662.85,313.14 L 1662.36,313.64 L 1661.14,314.40 L 1658.90,315.42 L 1658.47,315.60 L 1657.09,315.89 L 1656.68,315.96 L 1655.65,316.09 L 1655.10,316.15 L 1653.74,316.26 L 1653.01,316.31 L 1651.24,316.41 L 1650.30,316.45 L 1648.07,316.54 L 1646.89,316.58 L 1644.12,316.65 L 1642.66,316.68 L 1639.30,316.74 L 1637.53,316.76 L 1633.50,316.81 L 1631.40,316.83 L 1626.64,316.87 L 1624.16,316.89 L 1618.61,316.92 L 1615.72,316.93 L 1609.31,316.95 L 1605.98,316.96 L 1598.64,316.97 L 1594.85,316.98 L 1586.52,316.99 L 1584.37,316.99 L 1579.87,316.99 L 1577.59,317.00 L 1572.83,317.00 L 1570.41,317.00 L 1565.37,317.00 L 1557.48,317.00 L 1460.00,317.00 L 1460.00,326.04 L 1460.00,327.47 L 1460.09,330.00 L 1460.16,331.21 L 1460.41,333.36 L 1460.55,334.39 L 1460.98,336.23 L 1461.22,337.11 L 1461.86,338.70 L 1462.20,339.47 L 1463.08,340.86 L 1463.55,341.54 L 1464.70,342.82 L 1465.31,343.44 L 1466.75,344.66 L 1469.28,346.48 L 1470.50,347.30 L 1472.89,348.68 L 1474.10,349.34 L 1476.62,350.44 L 1477.92,350.96 L 1480.81,351.82 L 1482.32,352.22 L 1485.80,352.86 L 1487.64,353.16 L 1491.93,353.64 L 1493.07,353.75 L 1495.53,353.94 L 1496.80,354.03 L 1499.55,354.20 L 1500.96,354.27 L 1504.02,354.41 L 1505.59,354.48 L 1508.99,354.59 L 1510.73,354.65 L 1514.50,354.75 L 1520.60,354.89 L 1523.45,354.95 L 1528.46,355.06 L 1530.85,355.12 L 1535.00,355.24 L 1536.98,355.31 L 1540.33,355.44 L 1541.92,355.51 L 1544.55,355.65 L 1545.78,355.73 L 1547.75,355.89 L 1548.66,355.98 L 1550.04,356.16 L 1550.66,356.26 L 1551.52,356.47 L 1552.29,356.83 L 1552.63,357.11 L 1553.25,357.99 L 1553.55,358.48 L 1554.07,359.73 L 1554.32,360.39 L 1554.73,361.92 L 1554.93,362.72 L 1555.23,364.47 L 1555.50,366.26 L 1555.65,370.18 L 1555.19,376.00 L 1554.97,377.31 L 1554.61,379.43 L 1554.41,380.42 L 1553.86,381.97 L 1553.54,382.69 L 1552.49,383.76 L 1551.87,384.24 L 1550.01,384.91 L 1549.48,385.06 L 1548.21,385.30 L 1547.54,385.41 L 1545.96,385.57 L 1545.12,385.65 L 1543.19,385.76 L 1542.18,385.81 L 1539.86,385.87 L 1538.64,385.90 L 1535.89,385.92 L 1534.46,385.93 L 1531.24,385.94 L 1529.57,385.93 L 1525.84,385.92 L 1519.64,385.90 L 1517.28,385.89 L 1512.76,385.85 L 1510.54,385.83 L 1506.31,385.76 L 1504.24,385.73 L 1500.35,385.64 L 1498.45,385.59 L 1494.92,385.47 L 1493.21,385.41 L 1490.10,385.27 L 1488.60,385.20 L 1485.93,385.03 L 1484.66,384.95 L 1482.48,384.77 L 1481.45,384.67 M 1612.75,286.34 L 1627.00,285.69 L 1626.98,274.59 L 1626.97,272.56 L 1626.80,268.96 L 1626.69,267.23 L 1626.26,264.21 L 1626.02,262.76 L 1625.29,260.24 L 1624.89,259.04 L 1623.83,256.94 L 1623.25,255.94 L 1621.81,254.20 L 1621.04,253.36 L 1619.17,251.90 L 1618.18,251.19 L 1615.84,249.94 L 1611.77,248.20 L 1610.36,247.68 L 1607.66,246.80 L 1606.31,246.38 L 1603.44,245.71 L 1601.95,245.39 L 1598.53,244.89 L 1597.63,244.77 L 1595.65,244.57 L 1594.64,244.47 L 1592.40,244.30 L 1591.24,244.22 L 1588.70,244.09 L 1587.38,244.02 L 1584.48,243.91 L 1582.98,243.86 L 1579.68,243.78 L 1577.98,243.74 L 1574.23,243.68 L 1572.29,243.66 L 1568.05,243.61 L 1565.87,243.60 L 1561.08,243.57 L 1558.62,243.56 L 1553.26,243.55 L 1544.50,243.54 L 1541.42,243.54 L 1535.74,243.55 L 1532.98,243.55 L 1527.88,243.57 L 1525.41,243.58 L 1520.86,243.61 L 1518.66,243.63 L 1514.61,243.68 L 1512.65,243.71 L 1509.07,243.78 L 1507.34,243.82 L 1504.18,243.92 L 1502.64,243.97 L 1499.86,244.09 L 1498.51,244.16 L 1496.05,244.31 L 1494.86,244.39 L 1492.70,244.57 L 1491.65,244.67 L 1489.73,244.89 L 1487.87,245.12 L 1484.69,245.69 L 1483.17,246.00 L 1480.43,246.76 L 1476.43,248.11 L 1474.87,248.70 L 1471.70,250.44 L 1470.14,251.38 L 1467.25,253.61 L 1465.87,254.76 L 1463.62,257.17 L 1463.11,257.77 L 1462.29,258.95 L 1461.37,260.66 L 1461.15,261.18 L 1460.79,262.78 L 1460.62,263.67 L 1460.36,265.94 L 1460.24,267.15 L 1460.09,270.02 L 1460.00,274.93 L 1460.00,285.92 L 1467.75,286.26 L 1468.22,286.28 L 1469.45,286.32 L 1470.11,286.34 L 1471.70,286.37 L 1472.54,286.39 L 1474.47,286.43 L 1475.47,286.44 L 1477.72,286.48 L 1478.87,286.49 L 1481.41,286.52 L 1482.71,286.54 L 1485.50,286.56 L 1488.36,286.59 L 1494.76,286.64 L 1498.06,286.66 L 1505.20,286.70 L 1508.84,286.72 L 1516.52,286.74 L 1524.29,286.77 L 1540.61,286.79 L 1544.68,286.79 L 1552.78,286.79 L 1556.80,286.78 L 1564.65,286.77 L 1568.52,286.76 L 1575.91,286.74 L 1579.53,286.73 L 1586.27,286.69 L 1589.54,286.67 L 1595.43,286.63 L 1596.84,286.62 L 1599.47,286.59 L 1600.75,286.58 L 1603.10,286.55 L 1604.23,286.53 L 1606.27,286.50 L 1607.26,286.49 L 1608.97,286.45 L 1609.78,286.44 L 1611.14,286.40 L 1611.77,286.38 M 552.00,384.13 L 550.84,383.88 L 548.83,383.25 L 547.87,382.91 L 546.24,382.08 L 545.47,381.64 L 544.17,380.60 L 542.55,378.77 L 542.38,378.53 L 542.09,377.58 L 542.02,377.29 L 541.90,376.54 L 541.84,376.12 L 541.73,375.08 L 541.68,374.52 L 541.59,373.15 L 541.54,372.41 L 541.46,370.65 L 541.42,369.72 L 541.35,367.52 L 541.32,366.36 L 541.26,363.67 L 541.24,362.26 L 541.19,359.04 L 541.17,357.35 L 541.13,353.54 L 541.12,351.55 L 541.09,347.09 L 541.08,344.78 L 541.06,339.63 L 541.05,336.96 L 541.03,331.06 L 541.03,328.02 L 541.02,321.33 L 541.02,317.88 L 541.01,310.34 L 541.01,298.03 L 541.02,294.23 L 541.02,287.12 L 541.02,283.65 L 541.03,277.18 L 541.04,274.02 L 541.05,268.15 L 541.06,265.29 L 541.08,260.00 L 541.09,257.43 L 541.12,252.70 L 541.13,250.40 L 541.16,246.19 L 541.18,244.16 L 541.22,240.46 L 541.24,238.67 L 541.29,235.45 L 541.31,233.90 L 541.37,231.13 L 541.39,229.80 L 541.46,227.46 L 541.49,226.35 L 541.56,224.41 L 541.60,223.49 L 541.67,221.93 L 541.72,221.20 L 541.80,219.99 L 541.85,219.43 L 541.95,218.54 L 542.00,218.14 L 542.11,217.56 L 542.28,217.00 L 542.81,215.93 L 544.46,214.25 L 544.92,213.87 L 546.02,213.22 L 546.59,212.91 L 547.93,212.39 L 548.63,212.15 L 550.23,211.77 L 551.06,211.59 L 552.94,211.34 L 553.92,211.22 L 556.10,211.08 L 559.73,211.00 L 561.16,211.00 L 563.72,211.08 L 564.96,211.14 L 567.16,211.35 L 568.22,211.46 L 570.08,211.80 L 570.97,211.98 L 572.52,212.46 L 573.26,212.72 L 574.53,213.34 L 575.14,213.68 L 576.16,214.46 L 576.64,214.88 L 577.44,215.84 L 578.42,217.48 L 578.60,217.85 L 578.89,218.98 L 578.96,219.31 L 579.09,220.15 L 579.15,220.59 L 579.26,221.69 L 579.31,222.27 L 579.41,223.69 L 579.45,224.44 L 579.53,226.21 L 579.57,227.15 L 579.64,229.35 L 579.68,230.50 L 579.73,233.17 L 579.76,234.56 L 579.81,237.74 L 579.83,239.40 L 579.87,243.15 L 579.89,245.11 L 579.91,249.48 L 579.93,251.75 L 579.95,256.79 L 579.96,259.40 L 579.97,265.16 L 579.98,268.14 L 579.99,274.68 L 579.99,278.05 L 580.00,285.41 L 580.00,297.43 L 580.00,300.10 L 580.00,305.17 L 580.00,307.67 L 580.00,312.41 L 580.00,314.74 L 580.00,319.17 L 580.00,321.34 L 580.00,325.46 L 579.99,327.48 L 579.99,331.30 L 579.99,333.17 L 579.98,336.71 L 579.97,338.44 L 579.96,341.71 L 579.95,343.31 L 579.93,346.31 L 579.91,349.25 L 579.85,354.39 L 579.81,356.85 L 579.72,361.10 L 579.67,363.12 L 579.53,366.56 L 579.46,368.19 L 579.28,370.92 L 579.18,372.20 L 578.94,374.31 L 578.82,375.29 L 578.52,376.87 L 578.36,377.60 L 578.00,378.74 L 577.81,379.27 L 577.37,380.06 L 576.91,380.79 L 575.74,381.59 L 573.54,382.55 L 573.01,382.77 L 571.61,383.16 L 570.86,383.35 L 569.10,383.69 L 567.27,384.00 L 563.05,384.40 L 560.93,384.56 L 556.86,384.59 L 555.90,384.57 L 554.17,384.45 L 553.35,384.37 M 619.00,383.98 L 617.51,383.67 L 614.94,382.52 L 611.75,380.01 L 609.00,376.97 L 609.00,272.00 L 609.00,167.03 L 611.75,163.96 L 612.20,163.45 L 613.41,162.54 L 614.06,162.10 L 615.62,161.34 L 616.43,160.99 L 618.27,160.39 L 619.22,160.11 L 621.28,159.69 L 623.39,159.32 L 628.02,159.13 L 635.11,159.78 L 636.09,159.97 L 637.81,160.35 L 638.64,160.55 L 640.08,160.98 L 641.45,161.43 L 643.47,162.55 L 644.38,163.16 L 645.65,164.73 L 646.94,167.74 L 646.99,167.90 L 647.07,168.59 L 647.11,169.00 L 647.19,170.21 L 647.23,170.88 L 647.30,172.60 L 647.33,173.52 L 647.40,175.74 L 647.43,176.92 L 647.49,179.66 L 647.52,181.09 L 647.58,184.33 L 647.61,186.02 L 647.66,189.77 L 647.68,191.71 L 647.73,195.97 L 647.75,198.16 L 647.79,202.92 L 647.81,205.37 L 647.84,210.64 L 647.86,213.33 L 647.89,219.11 L 647.90,222.06 L 647.93,228.33 L 647.94,231.54 L 647.96,238.32 L 647.96,241.77 L 647.98,249.05 L 647.98,252.76 L 647.99,260.54 L 647.99,272.78 L 647.99,276.31 L 648.00,283.02 L 648.00,286.31 L 648.00,292.58 L 648.00,295.65 L 648.00,301.49 L 648.00,304.35 L 648.00,309.77 L 648.00,312.44 L 647.99,317.46 L 647.99,319.92 L 647.98,324.56 L 647.98,326.84 L 647.97,331.11 L 647.96,333.21 L 647.94,337.13 L 647.93,339.05 L 647.91,342.64 L 647.90,344.39 L 647.87,347.66 L 647.85,349.26 L 647.81,352.22 L 647.79,353.67 L 647.74,356.35 L 647.72,357.65 L 647.66,360.05 L 647.63,361.22 L 647.56,363.37 L 647.49,365.45 L 647.30,368.92 L 647.20,370.54 L 646.96,373.17 L 646.84,374.40 L 646.53,376.33 L 646.37,377.22 L 646.00,378.58 L 645.80,379.19 L 645.35,380.09 L 645.11,380.50 L 644.57,381.07 L 644.28,381.33 L 643.65,381.69 L 641.35,382.63 L 640.78,382.86 L 639.33,383.28 L 638.57,383.48 L 636.80,383.82 L 634.96,384.13 L 630.76,384.49 L 628.63,384.62 L 624.42,384.57 L 623.41,384.53 L 621.52,384.36 L 620.61,384.26 M 4.75,381.92 L 3.90,381.42 L 2.57,379.93 L 1.96,379.08 L 1.09,376.78 L 0.90,376.14 L 0.60,374.70 L 0.46,373.94 L 0.26,372.24 L 0.17,371.35 L 0.06,369.37 L -0.00,366.07 L -0.00,364.99 L 0.01,363.20 L 0.02,362.36 L 0.07,360.96 L 0.10,360.31 L 0.19,359.23 L 0.25,358.72 L 0.42,357.86 L 0.61,357.06 L 1.29,355.79 L 2.92,353.77 L 5.83,350.50 L 94.67,349.94 L 97.65,349.92 L 103.34,349.89 L 106.14,349.87 L 111.48,349.83 L 114.10,349.82 L 119.08,349.78 L 121.53,349.77 L 126.19,349.73 L 128.47,349.72 L 132.81,349.68 L 134.93,349.67 L 138.96,349.63 L 140.93,349.61 L 144.67,349.58 L 146.50,349.56 L 149.95,349.52 L 153.33,349.48 L 159.31,349.38 L 162.17,349.33 L 167.20,349.22 L 169.60,349.16 L 173.78,349.02 L 175.77,348.95 L 179.20,348.77 L 180.83,348.68 L 183.62,348.47 L 184.95,348.36 L 187.20,348.11 L 188.27,347.97 L 190.10,347.67 L 190.96,347.51 L 192.46,347.15 L 193.90,346.78 L 196.24,345.84 L 199.78,344.09 L 201.00,343.46 L 203.45,341.75 L 204.66,340.84 L 206.91,338.75 L 207.98,337.69 L 209.77,335.47 L 211.65,332.28 L 211.91,331.66 L 212.32,329.86 L 212.51,328.89 L 212.77,326.54 L 212.89,325.32 L 213.01,322.62 L 213.05,321.25 L 213.03,318.40 L 213.01,316.98 L 212.85,314.18 L 212.76,312.80 L 212.47,310.25 L 212.31,309.03 L 211.90,306.92 L 211.14,304.49 L 210.61,303.34 L 208.94,300.94 L 208.02,299.74 L 205.76,297.46 L 204.58,296.35 L 202.00,294.42 L 198.07,292.22 L 196.82,291.68 L 194.54,290.79 L 193.40,290.38 L 190.96,289.70 L 189.66,289.38 L 186.54,288.88 L 185.69,288.76 L 183.78,288.56 L 182.78,288.46 L 180.52,288.28 L 179.34,288.20 L 176.67,288.05 L 175.28,287.98 L 172.13,287.85 L 170.49,287.79 L 166.81,287.69 L 164.89,287.63 L 160.60,287.54 L 158.37,287.49 L 153.41,287.40 L 150.84,287.36 L 145.14,287.28 L 142.20,287.23 L 135.71,287.15 L 125.00,287.02 L 121.00,286.97 L 113.68,286.87 L 110.13,286.83 L 103.65,286.73 L 100.52,286.68 L 94.81,286.58 L 92.05,286.53 L 87.05,286.42 L 84.63,286.36 L 80.25,286.22 L 78.13,286.16 L 74.31,286.00 L 72.47,285.92 L 69.13,285.73 L 67.52,285.63 L 64.59,285.41 L 63.17,285.29 L 60.59,285.02 L 59.33,284.88 L 57.02,284.57 L 54.76,284.24 L 50.73,283.41 L 48.75,282.97 L 44.86,281.87 L 38.55,279.87 L 36.15,279.07 L 31.74,277.33 L 29.60,276.42 L 25.69,274.44 L 23.79,273.42 L 20.34,271.16 L 18.67,270.00 L 15.66,267.46 L 14.20,266.14 L 11.58,263.27 L 10.31,261.79 L 8.06,258.56 L 6.97,256.90 L 5.05,253.29 L 2.50,247.40 L 1.92,245.86 L 1.13,243.31 L 0.79,242.03 L 0.38,239.11 L 0.30,238.30 L 0.18,236.42 L 0.13,235.42 L 0.06,233.03 L 0.04,231.76 L 0.01,228.74 L -0.00,223.31 L -0.00,221.15 L 0.01,217.57 L 0.01,215.90 L 0.05,213.15 L 0.08,211.87 L 0.17,209.76 L 0.23,208.78 L 0.40,207.12 L 0.60,205.55 L 1.34,202.93 L 1.56,202.25 L 2.12,200.80 L 3.16,198.27 L 4.10,196.00 L 6.36,191.80 L 7.55,189.76 L 10.31,186.01 L 11.76,184.19 L 15.06,180.86 L 16.78,179.25 L 20.63,176.34 L 22.63,174.93 L 27.08,172.41 L 29.37,171.20 L 34.43,169.05 L 37.03,168.03 L 42.72,166.24 L 52.00,163.93 L 53.06,163.71 L 55.59,163.29 L 56.92,163.08 L 59.94,162.70 L 61.50,162.52 L 64.92,162.18 L 66.67,162.01 L 70.39,161.71 L 74.19,161.42 L 82.35,160.98 L 86.47,160.78 L 94.79,160.53 L 98.90,160.43 L 106.70,160.39 L 108.58,160.39 L 112.14,160.44 L 113.87,160.47 L 117.06,160.58 L 118.61,160.64 L 121.35,160.81 L 122.66,160.90 L 124.87,161.13 L 125.90,161.25 L 127.50,161.54 L 129.10,162.06 L 129.81,162.43 L 130.99,163.93 L 131.53,164.79 L 132.36,167.20 L 132.73,168.52 L 133.20,171.77 L 133.46,177.50 L 133.45,178.62 L 133.37,180.64 L 133.32,181.62 L 133.13,183.38 L 133.03,184.23 L 132.73,185.73 L 132.57,186.45 L 132.16,187.73 L 131.73,188.95 L 130.48,190.76 L 128.00,192.71 L 127.78,192.82 L 127.07,193.02 L 126.68,193.12 L 125.60,193.29 L 125.02,193.37 L 123.55,193.51 L 122.77,193.57 L 120.87,193.68 L 119.87,193.73 L 117.52,193.81 L 116.28,193.85 L 113.44,193.91 L 111.96,193.93 L 108.61,193.96 L 102.97,193.99 L 100.58,193.99 L 96.09,194.02 L 93.90,194.05 L 89.79,194.14 L 87.79,194.19 L 84.04,194.33 L 82.21,194.41 L 78.81,194.61 L 77.14,194.72 L 74.05,194.99 L 72.55,195.14 L 69.75,195.48 L 68.39,195.65 L 65.86,196.07 L 64.64,196.29 L 62.36,196.79 L 60.15,197.30 L 56.38,198.61 L 54.59,199.30 L 51.55,201.00 L 50.09,201.90 L 47.59,204.02 L 44.25,207.74 L 43.62,208.56 L 42.75,209.98 L 42.36,210.70 L 41.88,212.40 L 41.77,212.87 L 41.61,213.99 L 41.53,214.58 L 41.42,215.99 L 41.36,216.74 L 41.28,218.53 L 41.16,221.73 L 41.11,223.16 L 41.07,225.96 L 41.06,227.33 L 41.10,229.79 L 41.12,230.96 L 41.22,232.81 L 41.43,234.59 L 41.62,235.35 L 42.40,236.94 L 42.84,237.75 L 44.07,239.37 L 44.73,240.19 L 46.34,241.80 L 47.19,242.60 L 49.11,244.14 L 50.11,244.90 L 52.29,246.32 L 53.40,247.01 L 55.76,248.26 L 56.95,248.86 L 59.42,249.88 L 63.17,251.11 L 63.35,251.16 L 63.91,251.25 L 64.23,251.30 L 65.07,251.39 L 65.52,251.43 L 66.64,251.52 L 67.23,251.57 L 68.61,251.66 L 69.34,251.70 L 71.00,251.79 L 71.86,251.83 L 73.78,251.91 L 74.78,251.95 L 76.97,252.04 L 78.11,252.08 L 80.57,252.16 L 83.10,252.24 L 88.95,252.39 L 92.00,252.46 L 98.91,252.60 L 102.49,252.67 L 110.43,252.80 L 123.50,252.99 L 127.16,253.04 L 133.91,253.13 L 137.19,253.18 L 143.24,253.28 L 146.18,253.33 L 151.59,253.43 L 154.21,253.48 L 159.03,253.59 L 161.36,253.65 L 165.64,253.78 L 167.72,253.84 L 171.52,253.98 L 173.37,254.06 L 176.74,254.22 L 178.38,254.30 L 181.39,254.49 L 182.85,254.59 L 185.55,254.80 L 186.86,254.91 L 189.30,255.16 L 191.68,255.41 L 195.90,256.03 L 207.87,258.57 L 210.04,259.12 L 214.26,260.46 L 216.35,261.17 L 220.35,262.80 L 222.33,263.65 L 226.08,265.54 L 227.91,266.52 L 231.36,268.64 L 233.04,269.73 L 236.13,272.05 L 237.62,273.23 L 240.32,275.72 L 241.61,276.99 L 243.85,279.62 L 246.66,283.69 L 247.32,284.82 L 248.46,286.96 L 248.99,288.02 L 249.89,290.14 L 250.31,291.20 L 251.00,293.43 L 251.32,294.57 L 251.82,297.04 L 252.05,298.32 L 252.39,301.19 L 252.55,302.68 L 252.75,306.08 L 252.84,307.86 L 252.94,311.93 L 253.00,318.93 L 253.00,320.86 L 252.98,324.22 L 252.97,325.82 L 252.93,328.60 L 252.90,329.92 L 252.82,332.20 L 252.77,333.28 L 252.65,335.15 L 252.59,336.04 L 252.42,337.60 L 252.32,338.34 L 252.10,339.66 L 251.18,343.19 L 250.48,345.33 L 248.73,349.32 L 247.80,351.27 L 245.59,354.89 L 244.43,356.66 L 241.75,359.92 L 240.35,361.51 L 237.18,364.43 L 235.54,365.85 L 231.87,368.43 L 229.98,369.68 L 225.80,371.94 L 223.65,373.03 L 218.96,374.97 L 211.32,377.53 L 209.06,378.19 L 205.01,379.28 L 202.99,379.79 L 198.81,380.60 L 197.72,380.79 L 195.37,381.13 L 194.16,381.29 L 191.50,381.56 L 190.11,381.70 L 187.02,381.93 L 185.42,382.04 L 181.81,382.22 L 179.93,382.31 L 175.69,382.45 L 173.48,382.52 L 168.51,382.63 L 165.92,382.68 L 160.11,382.76 L 157.10,382.80 L 150.35,382.85 L 148.60,382.86 L 144.91,382.88 L 143.03,382.89 L 139.06,382.91 L 137.05,382.91 L 132.80,382.93 L 130.64,382.93 L 126.10,382.94 L 123.79,382.94 L 118.93,382.95 L 116.47,382.95 L 111.29,382.95 L 108.66,382.95 L 103.16,382.95 L 94.50,382.95 L 90.88,382.95 L 83.96,382.95 L 80.55,382.94 L 74.05,382.93 L 70.86,382.93 L 64.80,382.91 L 61.82,382.90 L 56.19,382.88 L 53.43,382.87 L 48.24,382.84 L 45.70,382.83 L 40.94,382.80 L 38.62,382.78 L 34.30,382.75 L 32.20,382.73 L 28.33,382.68 L 26.45,382.66 L 23.02,382.62 L 21.36,382.59 L 18.38,382.54 L 16.94,382.51 L 14.41,382.45 L 13.19,382.43 L 11.11,382.36 L 10.13,382.33 L 8.50,382.26 L 7.74,382.23 L 6.56,382.16 L 6.03,382.12 L 5.31,382.04 L 5.01,382.00 M 332.50,381.85 L 328.59,381.36 L 321.30,379.91 L 317.74,379.12 L 311.17,377.10 L 307.97,376.02 L 302.15,373.44 L 299.33,372.09 L 294.29,368.98 L 291.87,367.36 L 287.63,363.74 L 285.62,361.86 L 282.24,357.74 L 280.65,355.63 L 278.14,351.04 L 275.39,343.65 L 275.33,343.42 L 275.21,342.75 L 275.16,342.38 L 275.05,341.45 L 274.94,340.45 L 274.74,337.77 L 274.65,336.32 L 274.49,332.82 L 274.41,330.99 L 274.28,326.82 L 274.22,324.67 L 274.12,319.98 L 274.07,317.58 L 274.00,312.50 L 273.94,307.36 L 273.91,296.50 L 273.91,291.07 L 274.00,280.50 L 274.03,277.92 L 274.12,273.02 L 274.16,270.62 L 274.28,266.18 L 274.34,264.03 L 274.49,260.18 L 274.57,258.34 L 274.74,255.23 L 274.84,253.78 L 275.05,251.55 L 275.10,251.06 L 275.21,250.25 L 275.39,249.35 L 276.11,246.67 L 278.23,241.71 L 279.40,239.30 L 282.44,234.87 L 284.07,232.72 L 288.02,228.83 L 290.11,226.95 L 294.96,223.60 L 297.50,221.99 L 303.24,219.19 L 306.22,217.85 L 312.85,215.60 L 316.27,214.54 L 323.77,212.85 L 336.00,210.94 L 336.78,210.85 L 339.08,210.70 L 340.35,210.62 L 343.64,210.50 L 345.40,210.44 L 349.64,210.34 L 351.88,210.30 L 357.07,210.23 L 359.78,210.20 L 365.90,210.17 L 369.07,210.15 L 376.10,210.15 L 379.72,210.15 L 387.64,210.18 L 400.50,210.26 L 403.76,210.28 L 409.72,210.33 L 412.61,210.35 L 417.88,210.40 L 420.43,210.42 L 425.05,210.46 L 427.29,210.49 L 431.32,210.54 L 433.27,210.56 L 436.77,210.61 L 438.46,210.64 L 441.47,210.70 L 442.93,210.74 L 445.52,210.81 L 446.76,210.84 L 448.97,210.92 L 450.04,210.97 L 451.93,211.06 L 452.84,211.11 L 454.46,211.23 L 456.03,211.34 L 458.58,211.63 L 465.29,212.86 L 468.89,213.67 L 475.46,215.56 L 478.64,216.55 L 484.39,218.82 L 487.16,220.00 L 492.09,222.67 L 494.46,224.05 L 498.61,227.14 L 500.59,228.73 L 503.98,232.25 L 505.59,234.06 L 508.24,238.03 L 509.47,240.08 L 511.41,244.51 L 513.53,251.72 L 513.66,252.32 L 513.89,254.21 L 514.00,255.26 L 514.20,257.94 L 514.30,259.37 L 514.47,262.73 L 514.55,264.49 L 514.68,268.41 L 514.75,270.43 L 514.85,274.80 L 514.90,277.03 L 514.97,281.72 L 515.04,286.47 L 515.08,296.44 L 515.08,301.43 L 514.98,311.17 L 514.95,313.54 L 514.87,318.08 L 514.82,320.31 L 514.70,324.47 L 514.64,326.49 L 514.49,330.15 L 514.41,331.90 L 514.23,334.93 L 514.13,336.36 L 513.92,338.66 L 513.56,341.14 L 512.97,343.92 L 511.15,349.06 L 510.14,351.55 L 507.47,356.13 L 506.03,358.35 L 502.49,362.37 L 500.62,364.32 L 496.22,367.80 L 493.90,369.47 L 488.62,372.40 L 485.87,373.80 L 479.70,376.21 L 476.51,377.34 L 469.44,379.21 L 457.84,381.43 L 456.75,381.59 L 454.38,381.86 L 453.15,382.00 L 450.32,382.21 L 448.83,382.32 L 445.30,382.48 L 443.42,382.56 L 438.96,382.67 L 437.77,382.70 L 435.19,382.75 L 433.85,382.77 L 430.95,382.80 L 429.46,382.82 L 426.21,382.84 L 424.54,382.86 L 420.92,382.87 L 419.06,382.88 L 415.04,382.89 L 412.97,382.89 L 408.51,382.89 L 406.23,382.89 L 401.31,382.89 L 393.37,382.87 L 389.67,382.86 L 382.41,382.83 L 378.81,382.81 L 371.90,382.75 L 368.50,382.72 L 362.11,382.65 L 358.99,382.61 L 353.27,382.52 L 350.51,382.48 L 345.64,382.37 L 344.48,382.35 L 342.36,382.29 L 341.33,382.27 L 339.47,382.21 L 338.58,382.18 L 337.01,382.13 L 336.26,382.10 L 335.01,382.04 L 334.42,382.01 L 333.49,381.95 L 333.07,381.92 M 317.60,308.50 L 318.61,307.81 L 320.61,306.73 L 321.07,306.51 L 321.84,306.20 L 322.67,306.00 L 322.86,306.00 L 323.68,306.20 L 324.15,306.32 L 325.40,306.73 L 330.00,308.50 L 330.92,308.89 L 332.48,309.52 L 333.22,309.80 L 334.49,310.24 L 335.71,310.62 L 337.70,310.81 L 338.69,310.81 L 340.81,310.21 L 341.39,310.01 L 342.69,309.47 L 344.99,308.43 L 345.95,307.98 L 348.03,306.70 L 349.10,306.00 L 351.49,304.14 L 352.72,303.13 L 355.50,300.62 L 360.24,296.01 L 361.38,294.85 L 363.32,292.91 L 364.23,292.00 L 365.78,290.52 L 366.51,289.83 L 367.76,288.72 L 368.35,288.21 L 369.41,287.42 L 370.43,286.69 L 372.33,285.85 L 375.75,284.96 L 377.00,284.70 L 378.96,284.14 L 379.88,283.83 L 381.51,282.97 L 382.33,282.47 L 384.08,281.02 L 384.54,280.61 L 385.57,279.63 L 387.32,277.89 L 388.46,276.74 L 390.48,274.91 L 391.45,274.09 L 393.23,272.94 L 394.09,272.46 L 395.74,272.03 L 396.55,271.91 L 398.18,272.23 L 399.01,272.48 L 400.74,273.59 L 401.63,274.25 L 403.59,276.18 L 404.60,277.25 L 406.89,280.04 L 410.83,285.24 L 411.86,286.63 L 413.78,288.76 L 414.72,289.72 L 416.50,290.99 L 417.38,291.52 L 419.05,291.95 L 421.46,291.65 L 421.66,291.58 L 422.27,291.10 L 422.60,290.81 L 423.40,290.00 L 426.03,286.80 L 426.55,286.08 L 427.46,284.88 L 427.89,284.33 L 428.66,283.44 L 429.03,283.04 L 429.69,282.45 L 430.02,282.19 L 430.64,281.88 L 431.25,281.64 L 432.51,281.90 L 434.82,283.27 L 435.25,283.57 L 436.38,284.40 L 436.98,284.84 L 438.35,285.83 L 442.53,288.85 L 443.16,289.32 L 444.76,290.31 L 445.59,290.81 L 447.41,291.79 L 448.33,292.27 L 450.16,293.12 L 452.65,294.14 L 453.31,294.37 L 455.07,294.84 L 456.00,295.07 L 458.18,295.53 L 460.42,295.99 L 465.33,296.74 L 466.53,296.91 L 468.79,297.17 L 469.89,297.29 L 471.79,297.43 L 472.69,297.49 L 474.05,297.49 L 475.26,297.29 L 475.32,297.26 L 475.41,296.82 L 475.46,296.54 L 475.54,295.65 L 475.58,295.14 L 475.64,293.84 L 475.68,293.14 L 475.73,291.48 L 475.75,290.61 L 475.78,288.65 L 475.79,287.64 L 475.81,285.42 L 475.76,278.11 L 475.75,276.95 L 475.72,274.84 L 475.70,273.82 L 475.67,271.97 L 475.64,270.18 L 475.57,267.28 L 475.52,265.93 L 475.41,263.79 L 475.35,262.80 L 475.18,261.24 L 475.09,260.52 L 474.84,259.37 L 474.70,258.83 L 474.34,257.92 L 472.77,255.23 L 471.96,254.01 L 469.77,251.74 L 468.58,250.64 L 465.63,248.64 L 464.07,247.67 L 460.41,245.93 L 454.12,243.66 L 453.36,243.42 L 451.85,243.04 L 451.07,242.85 L 449.28,242.55 L 448.33,242.41 L 445.96,242.18 L 444.67,242.07 L 441.38,241.90 L 440.49,241.86 L 438.48,241.78 L 437.43,241.75 L 435.08,241.68 L 433.86,241.65 L 431.13,241.60 L 429.72,241.57 L 426.57,241.52 L 424.94,241.50 L 421.34,241.45 L 419.48,241.43 L 415.37,241.38 L 413.25,241.36 L 408.61,241.31 L 401.00,241.25 L 397.93,241.22 L 392.24,241.18 L 389.46,241.16 L 384.31,241.14 L 381.81,241.13 L 377.18,241.12 L 374.92,241.12 L 370.77,241.14 L 368.75,241.16 L 365.04,241.20 L 363.23,241.23 L 359.92,241.30 L 358.31,241.33 L 355.37,241.43 L 353.94,241.48 L 351.32,241.61 L 350.04,241.68 L 347.72,241.84 L 346.58,241.93 L 344.51,242.12 L 342.49,242.33 L 339.05,242.85 L 337.40,243.12 L 334.48,243.81 L 330.37,245.03 L 328.71,245.59 L 325.42,247.21 L 323.80,248.09 L 320.82,250.17 L 319.39,251.25 L 317.02,253.57 L 314.47,257.05 L 314.33,257.34 L 314.07,258.09 L 313.95,258.50 L 313.74,259.57 L 313.65,260.15 L 313.49,261.62 L 313.41,262.42 L 313.29,264.40 L 313.24,265.46 L 313.15,268.04 L 313.12,269.41 L 313.06,272.66 L 313.04,274.39 L 313.01,278.42 L 313.00,285.45 L 313.00,288.96 L 313.04,295.37 L 313.05,296.90 L 313.08,299.71 L 313.09,301.07 L 313.13,303.49 L 313.15,304.65 L 313.20,306.62 L 313.23,307.54 L 313.28,308.98 L 313.31,309.63 L 313.36,310.48 L 313.46,311.00 L 313.52,311.00 L 313.92,310.80 L 314.16,310.68 L 314.86,310.27 L 315.61,309.81 M 722.19,283.75 L 722.12,283.60 L 721.88,283.06 L 721.74,282.75 L 721.35,281.89 L 721.14,281.42 L 720.62,280.25 L 720.34,279.64 L 719.69,278.19 L 719.34,277.44 L 718.57,275.73 L 718.18,274.85 L 717.29,272.89 L 716.39,270.88 L 714.28,266.21 L 713.18,263.77 L 710.73,258.35 L 709.47,255.57 L 706.75,249.56 L 705.37,246.49 L 702.45,240.03 L 697.92,230.00 L 696.43,226.71 L 693.73,220.72 L 692.42,217.81 L 690.05,212.54 L 688.91,209.99 L 686.87,205.40 L 685.88,203.18 L 684.14,199.20 L 683.30,197.28 L 681.84,193.87 L 681.14,192.22 L 679.95,189.32 L 679.38,187.93 L 678.44,185.49 L 677.99,184.32 L 677.28,182.28 L 676.94,181.30 L 676.44,179.62 L 676.21,178.81 L 675.89,177.42 L 675.76,176.76 L 675.62,175.62 L 675.57,175.07 L 675.59,174.12 L 675.64,173.21 L 676.14,171.73 L 677.33,169.61 L 677.64,169.14 L 678.48,168.23 L 678.93,167.79 L 680.02,166.94 L 681.18,166.12 L 684.12,164.72 L 685.68,164.07 L 689.24,163.10 L 694.98,162.24 L 697.16,162.08 L 700.95,162.20 L 702.75,162.33 L 705.82,163.02 L 707.27,163.43 L 709.66,164.71 L 712.55,167.30 L 712.74,167.54 L 713.42,168.75 L 713.81,169.46 L 714.83,171.52 L 715.38,172.64 L 716.69,175.42 L 717.37,176.89 L 718.92,180.26 L 719.72,182.02 L 721.44,185.86 L 722.32,187.83 L 724.17,192.02 L 726.04,196.27 L 729.93,205.26 L 731.86,209.76 L 735.54,218.48 L 736.42,220.60 L 738.09,224.61 L 738.89,226.57 L 740.35,230.16 L 741.05,231.90 L 742.26,234.95 L 742.83,236.40 L 743.72,238.78 L 744.13,239.88 L 744.66,241.47 L 744.77,241.81 L 744.91,242.33 L 744.99,242.83 L 744.99,243.16 L 744.80,244.21 L 744.67,244.80 L 744.23,246.30 L 743.99,247.10 L 743.35,248.98 L 743.01,249.96 L 742.20,252.14 L 741.36,254.38 L 739.29,259.47 L 738.21,262.06 L 735.87,267.42 L 734.70,270.07 L 732.35,275.12 L 731.77,276.33 L 730.66,278.60 L 730.12,279.70 L 729.09,281.69 L 728.60,282.65 L 727.69,284.29 L 727.26,285.06 L 726.50,286.28 L 726.15,286.83 L 725.57,287.55 L 724.95,288.00 L 724.84,288.00 L 724.47,287.66 L 724.27,287.45 L 723.79,286.75 L 723.29,285.98 M 264.24,204.67 L 262.87,204.17 L 260.27,202.70 L 259.00,201.90 L 256.69,199.88 L 255.57,198.82 L 253.63,196.35 L 251.26,192.25 L 250.72,191.08 L 249.98,189.16 L 249.66,188.24 L 249.28,186.48 L 249.14,185.58 L 249.06,183.53 L 249.21,179.64 L 249.36,177.36 L 250.08,173.31 L 250.52,171.35 L 251.90,167.76 L 252.69,166.00 L 254.85,162.62 L 259.08,157.51 L 260.01,156.53 L 261.94,154.77 L 262.92,153.92 L 264.95,152.42 L 267.00,150.98 L 271.30,148.88 L 273.47,147.95 L 277.87,146.87 L 280.08,146.45 L 284.42,146.38 L 286.58,146.46 L 290.70,147.39 L 291.70,147.69 L 293.65,148.47 L 294.61,148.89 L 296.43,149.91 L 297.33,150.46 L 299.02,151.73 L 299.85,152.40 L 301.38,153.92 L 302.13,154.71 L 303.48,156.48 L 305.29,159.41 L 305.71,160.18 L 306.37,161.99 L 306.67,162.93 L 307.12,164.99 L 307.51,167.11 L 307.65,171.77 L 307.61,174.11 L 306.89,178.76 L 306.66,179.89 L 306.04,182.03 L 304.87,185.00 L 303.89,187.06 L 301.68,190.64 L 300.53,192.35 L 297.90,195.31 L 296.52,196.72 L 293.34,199.18 L 287.83,202.45 L 286.31,203.21 L 283.92,204.28 L 282.79,204.76 L 280.82,205.35 L 279.84,205.60 L 277.79,205.84 L 274.12,205.92 L 272.30,205.90 L 268.49,205.52 L 267.59,205.41 L 266.03,205.13 L 265.30,204.99 M 1119.68,198.61 L 1118.69,198.24 L 1116.94,197.42 L 1116.10,196.99 L 1114.66,196.03 L 1113.97,195.53 L 1112.81,194.39 L 1112.26,193.80 L 1111.36,192.46 L 1110.94,191.76 L 1110.28,190.19 L 1109.98,189.36 L 1109.55,187.52 L 1109.36,186.55 L 1109.13,184.40 L 1109.00,180.80 L 1109.00,179.69 L 1109.10,177.70 L 1109.17,176.74 L 1109.41,175.03 L 1109.55,174.20 L 1109.96,172.72 L 1110.18,172.00 L 1110.77,170.72 L 1111.40,169.48 L 1113.29,167.45 L 1113.82,166.97 L 1115.06,166.08 L 1117.21,164.80 L 1118.15,164.30 L 1119.85,163.60 L 1120.72,163.29 L 1122.74,162.91 L 1123.30,162.83 L 1124.58,162.71 L 1125.25,162.66 L 1126.82,162.59 L 1127.65,162.57 L 1129.59,162.53 L 1133.00,162.52 L 1134.24,162.52 L 1136.38,162.53 L 1137.40,162.55 L 1139.13,162.59 L 1139.96,162.62 L 1141.37,162.71 L 1142.05,162.76 L 1143.21,162.91 L 1144.32,163.06 L 1146.09,163.58 L 1148.64,164.73 L 1149.41,165.13 L 1150.77,166.07 L 1151.43,166.57 L 1152.58,167.68 L 1153.13,168.26 L 1154.06,169.55 L 1154.51,170.22 L 1155.23,171.69 L 1155.57,172.45 L 1156.09,174.10 L 1156.32,174.95 L 1156.63,176.79 L 1156.76,177.73 L 1156.86,179.74 L 1156.77,182.98 L 1156.70,183.98 L 1156.47,185.79 L 1156.35,186.66 L 1156.00,188.24 L 1155.62,189.77 L 1154.44,192.24 L 1153.77,193.40 L 1151.92,195.26 L 1148.27,197.58 L 1147.64,197.89 L 1145.83,198.41 L 1144.84,198.66 L 1142.47,199.06 L 1141.23,199.25 L 1138.48,199.52 L 1137.09,199.64 L 1134.18,199.78 L 1132.72,199.83 L 1129.85,199.83 L 1128.43,199.81 L 1125.79,199.66 L 1124.52,199.56 L 1122.30,199.25 L 1121.27,199.08 M 547.50,197.66 L 545.24,196.91 L 541.44,195.16 L 539.64,194.24 L 536.68,192.07 L 535.29,190.93 L 533.08,188.27 L 530.49,183.62 L 529.92,182.27 L 529.43,179.54 L 529.28,178.18 L 529.58,175.50 L 529.83,174.17 L 530.88,171.61 L 531.49,170.35 L 533.23,167.97 L 534.17,166.81 L 536.54,164.68 L 537.79,163.66 L 540.73,161.86 L 542.27,161.00 L 545.72,159.59 L 551.42,157.99 L 552.73,157.73 L 555.45,157.44 L 556.82,157.34 L 559.59,157.37 L 560.99,157.42 L 563.76,157.75 L 565.14,157.95 L 567.85,158.57 L 569.19,158.91 L 571.76,159.79 L 573.02,160.26 L 575.39,161.39 L 576.55,161.99 L 578.65,163.35 L 581.44,165.64 L 582.55,166.72 L 584.19,168.66 L 584.92,169.61 L 585.89,171.55 L 586.31,172.54 L 586.76,174.82 L 587.00,178.99 L 587.00,179.82 L 586.80,181.44 L 586.66,182.24 L 586.19,183.80 L 585.93,184.57 L 585.20,186.06 L 584.80,186.80 L 583.82,188.21 L 582.77,189.60 L 579.93,192.12 L 574.60,195.45 L 573.37,196.06 L 571.26,196.96 L 570.23,197.36 L 568.19,197.90 L 567.13,198.14 L 564.69,198.43 L 560.10,198.69 L 558.79,198.73 L 556.26,198.72 L 555.03,198.69 L 552.75,198.54 L 551.65,198.45 L 549.76,198.18 L 548.87,198.04 M 306.46,144.12 L 305.05,143.48 L 302.61,141.79 L 301.45,140.89 L 299.51,138.72 L 298.61,137.59 L 297.21,135.05 L 296.58,133.73 L 295.73,130.88 L 295.37,129.43 L 295.10,126.37 L 295.03,124.82 L 295.35,121.62 L 295.58,120.02 L 296.51,116.78 L 298.62,111.96 L 299.27,110.77 L 300.73,108.58 L 301.49,107.53 L 303.16,105.61 L 304.02,104.68 L 305.89,103.05 L 306.84,102.26 L 308.88,100.91 L 309.92,100.28 L 312.11,99.23 L 313.23,98.74 L 315.56,98.00 L 316.75,97.67 L 319.20,97.25 L 323.00,97.00 L 324.88,97.00 L 328.05,97.33 L 329.55,97.56 L 332.14,98.41 L 333.37,98.91 L 335.59,100.37 L 338.72,103.34 L 339.74,104.50 L 341.30,106.97 L 342.00,108.22 L 342.95,110.84 L 343.36,112.17 L 343.75,114.88 L 343.88,116.24 L 343.76,119.00 L 343.64,120.37 L 343.05,123.11 L 342.70,124.47 L 341.69,127.13 L 341.13,128.44 L 339.73,130.98 L 338.99,132.22 L 337.25,134.57 L 336.34,135.72 L 334.31,137.83 L 333.26,138.85 L 330.98,140.66 L 329.81,141.52 L 327.32,142.99 L 326.06,143.67 L 323.41,144.73 L 322.07,145.20 L 319.30,145.79 L 317.90,146.03 L 315.06,146.10 L 313.63,146.07 L 310.76,145.57 L 309.32,145.25 M 355.68,98.60 L 354.78,98.27 L 353.15,97.47 L 352.36,97.05 L 350.96,96.09 L 350.29,95.58 L 349.13,94.44 L 348.57,93.85 L 347.63,92.52 L 347.19,91.84 L 346.47,90.33 L 346.14,89.56 L 345.65,87.87 L 345.43,87.00 L 345.16,85.11 L 345.00,82.07 L 345.00,80.52 L 345.33,77.73 L 345.55,76.38 L 346.38,73.88 L 346.86,72.65 L 348.25,70.25 L 351.03,66.62 L 351.88,65.65 L 353.75,63.94 L 354.70,63.13 L 356.72,61.76 L 357.75,61.12 L 359.88,60.10 L 360.96,59.64 L 363.16,58.97 L 364.26,58.69 L 366.48,58.40 L 367.58,58.30 L 369.77,58.40 L 370.86,58.49 L 372.97,58.99 L 375.99,60.18 L 377.59,61.00 L 380.09,62.88 L 381.24,63.87 L 382.89,66.17 L 383.62,67.38 L 384.49,70.21 L 385.00,75.18 L 385.00,76.93 L 384.63,80.09 L 384.38,81.62 L 383.49,84.42 L 382.97,85.78 L 381.53,88.30 L 378.70,91.84 L 377.90,92.67 L 376.17,94.16 L 375.28,94.87 L 373.41,96.09 L 372.47,96.67 L 370.51,97.63 L 369.52,98.07 L 367.50,98.74 L 366.49,99.03 L 364.45,99.41 L 363.44,99.55 L 361.43,99.62 L 360.43,99.61 L 358.49,99.36 L 357.53,99.19 M 400.73,62.01 L 399.99,61.43 L 398.73,60.17 L 398.13,59.52 L 397.16,58.15 L 396.71,57.46 L 396.03,55.98 L 395.73,55.24 L 395.35,53.67 L 395.20,52.88 L 395.11,51.23 L 395.11,50.40 L 395.32,48.68 L 395.47,47.81 L 395.99,46.03 L 397.10,43.29 L 397.84,41.76 L 399.67,39.21 L 400.65,38.02 L 402.93,36.16 L 404.13,35.31 L 406.85,34.16 L 411.41,33.22 L 413.05,33.08 L 415.89,33.28 L 417.24,33.46 L 419.51,34.31 L 420.58,34.82 L 422.32,36.33 L 424.37,39.36 L 424.79,40.26 L 425.37,42.12 L 425.62,43.06 L 425.85,44.98 L 425.92,45.94 L 425.80,47.86 L 425.70,48.83 L 425.26,50.72 L 424.99,51.66 L 424.23,53.49 L 423.81,54.39 L 422.73,56.10 L 422.16,56.94 L 420.79,58.50 L 418.41,60.64 L 417.78,61.12 L 416.37,61.93 L 415.64,62.31 L 414.08,62.92 L 412.50,63.47 L 409.17,63.94 L 407.53,64.07 L 404.47,63.66 L 403.74,63.50 L 402.43,63.01 L 401.80,62.74 M 439.75,39.92 L 439.27,39.64 L 438.07,38.35 L 436.50,36.00 L 436.13,35.29 L 435.63,33.83 L 435.41,33.10 L 435.19,31.63 L 435.05,30.16 L 435.51,27.26 L 435.86,25.84 L 437.17,23.18 L 437.92,21.90 L 439.89,19.67 L 440.94,18.62 L 443.39,17.00 L 444.65,16.28 L 447.38,15.46 L 448.07,15.32 L 449.47,15.21 L 450.17,15.18 L 451.57,15.34 L 452.28,15.45 L 453.66,15.89 L 455.70,16.90 L 456.68,17.52 L 458.19,19.09 L 458.86,19.92 L 459.76,21.83 L 460.14,22.82 L 460.46,24.94 L 460.55,26.02 L 460.30,28.23 L 460.11,29.34 L 459.33,31.53 L 458.87,32.60 L 457.56,34.64 L 456.85,35.63 L 455.04,37.39 L 451.80,39.60 L 451.02,40.00 L 448.95,40.54 L 447.87,40.76 L 445.55,40.92 L 444.40,40.95 L 442.26,40.72 L 441.26,40.56 M 477.45,23.55 L 476.88,22.98 L 476.06,21.67 L 475.70,21.00 L 475.27,19.55 L 475.11,18.81 L 475.06,17.27 L 475.09,16.51 L 475.41,14.96 L 475.61,14.20 L 476.28,12.72 L 476.65,11.99 L 477.65,10.65 L 478.18,10.00 L 479.48,8.85 L 481.75,7.45 L 482.53,7.08 L 484.06,6.63 L 484.82,6.45 L 486.28,6.37 L 487.00,6.37 L 488.36,6.62 L 489.01,6.79 L 490.20,7.35 L 490.78,7.67 L 491.76,8.52 L 492.22,8.98 L 492.96,10.09 L 493.29,10.68 L 493.73,12.02 L 494.00,14.27 L 494.00,15.42 L 493.53,17.54 L 493.23,18.57 L 492.24,20.41 L 491.69,21.29 L 490.31,22.78 L 489.58,23.47 L 487.93,24.54 L 487.08,25.02 L 485.27,25.60 L 484.36,25.83 L 482.51,25.86 L 481.60,25.80 L 479.85,25.21 L 479.00,24.83 M 509.20,14.80 L 509.03,14.64 L 508.73,14.04 L 508.59,13.71 L 508.35,12.86 L 508.00,9.87 L 508.00,9.16 L 508.13,7.99 L 508.22,7.44 L 508.57,6.50 L 508.77,6.05 L 509.38,5.25 L 510.63,4.07 L 511.42,3.45 L 512.82,2.65 L 513.49,2.33 L 514.77,2.10 L 515.40,2.06 L 516.69,2.41 L 518.78,3.56 L 519.54,4.09 L 520.47,5.57 L 520.84,6.36 L 520.99,8.16 L 520.97,9.08 L 520.35,10.95 L 518.55,13.55 L 517.88,14.21 L 516.25,15.14 L 515.41,15.54 L 513.64,15.92 L 512.76,16.04 L 511.14,15.83 L 510.38,15.64 Z" fill="rgba(124,93,45,1)"/>
</g>
</svg>