<svg xmlns="http://www.w3.org/2000/svg" width="1666" height="524" viewBox="0 0 1666 524" version="1.1"><path d="M 547 1.084 C 532.457 2.653, 508.934 6.883, 494.419 10.538 C 480.222 14.114, 447.715 24.610, 440.500 27.948 C 438.300 28.965, 433.726 31.013, 430.334 32.498 L 424.169 35.197 425.819 39.648 C 427.524 44.249, 428.068 44.446, 433.407 42.397 C 434.531 41.966, 435 42.364, 435 43.747 C 435 46.349, 439.181 50.756, 442.421 51.570 C 450.990 53.720, 461 45.639, 461 36.571 C 461 34.529, 461.690 33.891, 464.804 33.053 C 473.519 30.706, 474.757 30.677, 475.887 32.788 C 476.476 33.889, 478.287 35.253, 479.911 35.819 C 485.170 37.652, 490.813 35.022, 493.423 29.520 C 494.923 26.361, 495.405 26.116, 501.383 25.476 C 505.413 25.044, 508.503 25.199, 509.808 25.897 C 512.922 27.564, 515.430 27.236, 518.591 24.750 C 521.409 22.534, 521.883 22.500, 550.476 22.509 C 583.520 22.520, 593.217 23.589, 618.500 30.010 C 724.548 56.939, 776.500 144.787, 746.746 246.865 L 745.500 251.138 730.530 215.885 C 722.297 196.496, 714.443 179.303, 713.077 177.680 C 709.713 173.681, 705.242 172, 697.975 172 C 688.909 172, 683.353 173.744, 678.888 177.992 C 672.148 184.404, 671.746 183.104, 699.581 244.892 C 724.162 299.456, 724.162 299.456, 722.433 302.478 C 701.206 339.574, 665.239 378.327, 625.500 406.920 C 572.420 445.112, 511.731 469.436, 446.500 478.661 C 426.515 481.488, 380.538 481.230, 362 478.187 C 316.390 470.700, 278.529 453.554, 250.372 427.632 C 246.111 423.709, 236.483 413.093, 228.978 404.039 L 215.330 387.579 224.112 383.286 C 239.615 375.707, 248.977 364.684, 252.460 349.907 C 254.260 342.273, 254.530 318.270, 252.916 309.434 C 250.117 294.106, 240.481 282.171, 224.793 274.603 C 204.663 264.892, 196.330 263.923, 125.500 263.062 C 69.388 262.380, 67.282 262.285, 60.792 260.151 C 52.334 257.370, 46.139 252.734, 43.250 247.024 C 41.429 243.423, 41 240.915, 41 233.853 C 41 223.782, 41.901 220.779, 46.311 216.161 C 54.775 207.297, 64.520 205.178, 100.500 204.375 C 130.487 203.706, 131.198 203.550, 132.945 197.259 C 134.457 191.813, 134.235 180.499, 132.536 176.432 C 129.877 170.069, 127.470 169.664, 96 170.286 C 74.613 170.709, 65.943 171.284, 57 172.872 C 36.804 176.457, 24.891 181.542, 14.756 190.900 C 2.866 201.880, 0 210.233, 0 233.908 C 0 256.548, 2.032 263.403, 11.965 274.272 C 24.266 287.731, 43.623 294.747, 74.624 296.982 C 82.256 297.532, 108.881 297.986, 133.792 297.991 C 171.173 297.998, 180.422 298.276, 186.742 299.582 C 198.444 301.999, 205.673 306.161, 209.745 312.826 C 211.750 316.107, 211.990 317.816, 211.995 328.800 C 212.001 342.830, 211.337 344.844, 204.888 350.364 C 199.870 354.659, 191.447 357.574, 180.026 358.967 C 174.829 359.600, 139.910 360, 89.727 360 C -0.351 360, 3.330 359.746, 1.108 366.119 C -0.322 370.223, -0.322 383.777, 1.108 387.881 C 3.333 394.263, -0.576 394, 91.990 394 C 177.401 394, 187.159 393.659, 203.767 390.091 L 212.034 388.315 218.151 399.908 C 235.934 433.609, 243.304 444.391, 259.954 461.057 C 293.244 494.382, 337.251 514.871, 391.784 522.435 C 407.186 524.571, 455.181 524.604, 471.699 522.489 C 560.343 511.143, 645.439 468.806, 709.173 404.341 C 725.065 388.267, 731.811 380.616, 742.861 366.132 L 750.008 356.763 752.145 361.632 C 760.209 380.002, 764.901 388.729, 768.324 391.723 C 778.136 400.307, 799.445 399.832, 807.641 390.847 C 810.554 387.655, 811.103 386.504, 849.514 303 C 868.110 262.575, 883.591 229.184, 883.916 228.797 C 884.241 228.410, 900.930 263.923, 921.003 307.715 C 946.073 362.407, 958.474 388.377, 960.612 390.661 C 969.512 400.172, 991.304 400.459, 1001.106 391.193 C 1004.501 387.985, 1010.933 374.641, 1050.125 289.500 C 1078.038 228.861, 1095.403 189.975, 1095.673 187.500 C 1096.634 178.699, 1089.025 172.958, 1075.409 172.210 C 1066.257 171.708, 1059.407 173.881, 1056.667 178.156 C 1055.841 179.445, 1038.875 217.850, 1018.964 263.500 C 999.054 309.150, 982.440 346.854, 982.045 347.287 C 981.649 347.720, 965.434 313.295, 946.010 270.787 C 926.587 228.279, 909.010 190.125, 906.950 186 C 901.002 174.091, 897.725 171.986, 885.185 172.022 C 875.956 172.048, 870.708 174.105, 866.336 179.408 C 864.625 181.484, 846.883 218.853, 825.448 265.528 C 804.621 310.877, 787.272 347.648, 786.895 347.241 C 786.517 346.833, 783.495 340.123, 780.178 332.328 L 774.148 318.156 780.610 303.986 C 797.431 267.105, 805.032 234.204, 805.098 198 C 805.162 163.070, 799.042 136.491, 784.375 108 C 775.567 90.889, 766.672 78.717, 752.500 64.381 C 719.898 31.400, 676.637 10.550, 624 2.449 C 610.727 0.406, 561.391 -0.469, 547 1.084 M 409.836 43.026 C 401.694 44.428, 395.796 51.237, 395.265 59.848 C 394.854 66.510, 396.179 69.530, 400.912 72.720 C 414.940 82.173, 434.095 60.049, 423.150 47.034 C 420.166 43.485, 415.437 42.062, 409.836 43.026 M 360.615 69.472 C 355.905 71.151, 349.589 77.069, 346.710 82.500 C 345.246 85.263, 344.576 88.379, 344.545 92.573 C 344.465 103.364, 351.086 110, 361.933 110 C 368.138 110, 372.415 108.330, 377.382 103.970 C 383.025 99.015, 385.399 93.709, 385.454 85.931 C 385.492 80.528, 385.056 78.705, 383 75.666 C 378.399 68.865, 369.347 66.360, 360.615 69.472 M 317.500 106.880 C 309.933 108.861, 302.444 114.687, 298.212 121.887 C 295.833 125.934, 295.500 127.551, 295.500 135.069 C 295.500 142.743, 295.787 144.073, 298.251 147.799 C 305.566 158.864, 322.428 159.465, 334.254 149.082 C 343.229 141.202, 346.655 126.342, 341.672 116.907 C 337.544 109.091, 326.522 104.519, 317.500 106.880 M 273.300 157.862 C 266.169 160.326, 260.398 164.538, 256.002 170.488 C 250.687 177.681, 248.742 183.294, 248.701 191.558 C 248.672 197.503, 249.127 199.464, 251.583 203.981 C 265.444 229.474, 306.272 214.387, 307.854 183.189 C 308.344 173.527, 306.385 168.431, 299.961 162.655 C 292.524 155.969, 283.483 154.343, 273.300 157.862 M 548 168.540 C 541.215 170.437, 536.040 173.771, 532.331 178.633 C 529.923 181.790, 529.500 183.275, 529.500 188.579 C 529.500 194.044, 529.881 195.289, 532.578 198.657 C 534.272 200.771, 537.967 203.757, 540.791 205.293 C 563.703 217.760, 594.985 201.579, 586.231 181.789 C 581.305 170.654, 563.059 164.331, 548 168.540 M 618.275 169.908 C 613.080 171.244, 610.174 173.713, 609.055 177.741 C 608.362 180.238, 608.009 215.497, 608.006 282.782 C 608 393.108, 607.782 388.845, 613.622 392.672 C 615.924 394.180, 618.464 394.500, 628.133 394.500 C 638.468 394.500, 640.187 394.252, 642.677 392.404 C 644.230 391.251, 646.056 389.226, 646.735 387.904 C 648.535 384.401, 648.533 179.612, 646.733 176.055 C 644.527 171.697, 639.742 169.775, 630.186 169.410 C 625.409 169.228, 620.049 169.452, 618.275 169.908 M 1119.637 173.465 C 1111.925 176.214, 1108 182.518, 1108 192.154 C 1108 199.142, 1111.517 205.009, 1117.500 208 C 1121.883 210.192, 1123.798 210.500, 1133.027 210.500 C 1142.307 210.500, 1144.132 210.202, 1148.435 207.988 C 1154.939 204.641, 1157.420 199.946, 1157.389 191.042 C 1157.354 180.877, 1153.585 175.635, 1144.500 173.119 C 1138.987 171.592, 1124.318 171.796, 1119.637 173.465 M 765.370 192 C 765.370 197.775, 765.535 200.137, 765.737 197.250 C 765.939 194.363, 765.939 189.637, 765.737 186.750 C 765.535 183.863, 765.370 186.225, 765.370 192 M 762.584 220.960 C 761.110 233.986, 753.101 261.669, 746.466 276.673 C 745.095 279.772, 744.153 282.487, 744.372 282.706 C 744.907 283.241, 750.591 269.516, 754.190 259 C 759.452 243.622, 765.676 215, 763.758 215 C 763.483 215, 762.955 217.682, 762.584 220.960 M 345.500 220.031 C 302.446 222.643, 278.365 237.532, 274.035 264.217 C 272.713 272.364, 272.708 340.530, 274.029 349 C 276.870 367.220, 289.258 380.430, 310 387.358 C 326.594 392.900, 331.335 393.294, 387 393.748 C 442.675 394.203, 454.389 393.598, 471 389.413 C 494.377 383.524, 508.823 371.296, 513.467 353.465 C 515.729 344.779, 515.722 268.209, 513.458 259.460 C 507.268 235.542, 483.890 222.731, 441.500 220.027 C 423.749 218.895, 364.182 218.898, 345.500 220.031 M 552.230 220.893 C 546.738 221.853, 542.810 224.802, 541.306 229.094 C 539.596 233.975, 539.596 382.025, 541.306 386.906 C 543.378 392.818, 546.673 394.376, 558.074 394.834 C 570.053 395.315, 576.139 393.567, 578.521 388.959 C 579.789 386.507, 580 374.966, 580 308 C 580 221.663, 580.267 225.263, 573.665 222.505 C 569.601 220.806, 557.800 219.919, 552.230 220.893 M 1231.609 223.062 C 1208.887 225.699, 1192.167 233.629, 1183.853 245.714 C 1178.915 252.890, 1177 260.491, 1177 272.908 C 1177 285.576, 1178.665 292.328, 1183.582 299.594 C 1191.218 310.879, 1203.989 317.729, 1224.653 321.623 C 1231.893 322.987, 1243.493 323.414, 1288.500 323.969 C 1348.936 324.715, 1350.466 324.871, 1357.291 330.968 C 1360.384 333.731, 1360.512 334.158, 1360.845 342.784 C 1361.369 356.407, 1359.354 359.071, 1345.800 362.675 C 1340.230 364.157, 1330.524 364.395, 1262 364.732 C 1177.554 365.147, 1181.134 364.887, 1178.894 370.777 C 1178.336 372.248, 1177.886 376.933, 1177.895 381.190 C 1177.917 390.911, 1179.573 394.495, 1184.756 396.038 C 1187.417 396.829, 1210.056 397.035, 1263 396.747 C 1344.993 396.302, 1348.984 396.040, 1367.342 389.923 C 1383.057 384.686, 1391.934 377.940, 1397.213 367.222 C 1400.351 360.851, 1400.516 359.941, 1400.852 347.104 C 1401.281 330.755, 1399.664 323.415, 1393.965 315.830 C 1385.216 304.188, 1371.626 297.487, 1349.500 293.907 C 1345.389 293.242, 1320.216 292.481, 1288.500 292.062 C 1228.376 291.268, 1226.905 291.105, 1220.303 284.503 C 1217.119 281.319, 1217 280.914, 1217 273.235 C 1217 263.947, 1218.366 261.457, 1225.228 258.235 C 1232.236 254.944, 1242.411 254, 1270.886 254 C 1297.888 254, 1297.888 254, 1300.694 251.588 C 1303.343 249.311, 1303.519 248.645, 1303.842 239.716 C 1304.227 229.065, 1302.784 224.629, 1298.387 222.957 C 1295.393 221.819, 1241.595 221.904, 1231.609 223.062 M 1486.252 223.030 C 1468.951 224.787, 1453.857 228.968, 1444.011 234.730 C 1437.993 238.252, 1429.612 246.279, 1426.632 251.374 C 1421.210 260.644, 1421 262.817, 1421 309.713 C 1421 350.681, 1421.112 353.395, 1423.037 359.110 C 1425.772 367.229, 1428.666 371.580, 1435.463 377.792 C 1441.851 383.630, 1452.248 389.014, 1462 391.534 C 1476.643 395.317, 1484.601 396.080, 1515.500 396.664 C 1551.383 397.342, 1553.053 397.074, 1554.925 390.330 C 1557.446 381.251, 1555.536 368.410, 1551.335 366.193 C 1550.326 365.660, 1536.450 364.992, 1520.500 364.708 C 1489.318 364.153, 1482.407 363.267, 1473.305 358.655 C 1470.593 357.280, 1466.714 354.319, 1464.687 352.075 C 1461 347.994, 1461 347.994, 1461 338.030 L 1461 328.065 1559.250 327.783 C 1649.577 327.523, 1657.751 327.363, 1660.609 325.797 C 1665.903 322.898, 1666.173 321.039, 1665.821 289.817 L 1665.500 261.388 1661.747 253.800 C 1653.553 237.227, 1638.665 228.490, 1610.845 223.925 C 1602.040 222.481, 1498.953 221.740, 1486.252 223.030 M 1123.500 223.865 C 1121.850 224.298, 1119.449 225.217, 1118.165 225.907 C 1112.956 228.705, 1113 227.992, 1113 310.500 C 1113 394.897, 1112.805 392.210, 1119.171 395.684 C 1123.914 398.272, 1142.013 398.257, 1146.829 395.661 C 1153.194 392.230, 1153 394.910, 1153 310.500 C 1153 226.108, 1153.187 228.699, 1146.862 225.428 C 1143.190 223.530, 1128.520 222.548, 1123.500 223.865 M 337.500 253.631 C 327.966 255.708, 319.423 260.404, 316.129 265.378 C 313.500 269.348, 313.500 269.348, 313.203 295.803 L 312.905 322.257 316.030 319.628 C 320.683 315.713, 323.422 315.392, 329.761 318.020 C 340.506 322.473, 346.087 320.132, 361.201 304.825 C 369.394 296.527, 371.392 295, 374.050 295 C 378.862 295, 383.700 292.215, 388.239 286.831 C 390.504 284.146, 393.353 281.699, 394.570 281.393 C 398.035 280.523, 402.290 283.369, 406.978 289.690 C 418.306 304.967, 420.075 305.288, 428.297 293.562 C 429.285 292.153, 430.637 291, 431.302 291 C 431.966 291, 435.744 293.433, 439.696 296.406 C 448.525 303.048, 454.964 305.541, 466.281 306.702 L 475 307.596 474.996 288.548 C 474.993 271.383, 474.798 269.182, 473.029 266.280 C 470.270 261.755, 463.795 257.356, 456.085 254.769 C 449.663 252.614, 448.198 252.553, 397 252.333 C 353.062 252.143, 343.358 252.355, 337.500 253.631 M 1492.810 255.043 C 1478.547 256.706, 1467.104 261.859, 1463.028 268.454 C 1461.282 271.279, 1461 273.425, 1461 283.868 L 1461 296 1543.500 296 L 1626 296 1626 283.901 C 1626 269.484, 1624.919 266.460, 1618.169 261.988 C 1612.438 258.192, 1606.132 256.338, 1594.500 255.029 C 1584.146 253.864, 1502.826 253.875, 1492.810 255.043 M 733 488 L 733 513 737.500 513 L 742 513 742 505.344 C 742 498.574, 742.311 497.281, 744.691 494.161 L 747.382 490.633 752.630 501.816 L 757.878 513 762.939 513 C 766.127 513, 768 512.568, 768 511.834 C 768 511.193, 764.850 504.680, 761 497.362 C 757.150 490.043, 754 483.545, 754 482.922 C 754 482.298, 756.925 478.042, 760.500 473.463 C 764.075 468.885, 767 464.658, 767 464.070 C 767 463.452, 764.878 463, 761.982 463 L 756.964 463 749.482 473.155 L 742 483.310 742 473.155 L 742 463 737.500 463 L 733 463 733 488 M 779.450 464.271 C 779.181 464.970, 779.083 476.107, 779.231 489.021 L 779.500 512.500 783.500 512.500 L 787.500 512.500 788 498.575 L 788.500 484.650 795.375 498.877 L 802.250 513.103 806.375 512.801 L 810.500 512.500 810.500 488 L 810.500 463.500 806.500 463.500 L 802.500 463.500 802 477.813 L 801.500 492.125 794.610 477.563 L 787.721 463 783.829 463 C 781.604 463, 779.728 463.544, 779.450 464.271 M 835.445 463.959 C 831.921 465.386, 827.153 471.746, 825.543 477.167 C 821.438 490.989, 825.806 506.745, 835.069 511.536 C 836.627 512.341, 840.331 513, 843.302 513 C 852.262 513, 858.744 507.083, 860.925 496.914 C 863.856 483.246, 860.399 470.881, 852.078 465.274 C 849.522 463.551, 847.346 463.015, 843.102 463.063 C 840.021 463.098, 836.575 463.501, 835.445 463.959 M 871.423 465.750 C 872.675 471.675, 880 511.338, 880 512.197 C 880 512.699, 882.138 512.972, 884.750 512.805 L 889.500 512.500 892.697 497 C 894.455 488.475, 896.040 480.825, 896.218 480 C 896.396 479.175, 898.126 486.150, 900.061 495.500 L 903.580 512.500 908.102 512.797 L 912.623 513.094 916.972 489.797 C 919.364 476.984, 921.526 465.712, 921.777 464.750 C 922.163 463.270, 921.521 463, 917.617 463 C 915.077 463, 913 463.288, 913 463.639 C 913 464.839, 908.979 488.494, 908.349 491 C 907.906 492.760, 906.800 489.061, 904.610 478.500 L 901.500 463.500 896.567 463.500 L 891.635 463.500 888.484 478.500 C 885.030 494.944, 885.269 494.963, 882.500 478 C 879.837 461.681, 880.466 463, 875.341 463 C 870.958 463, 870.856 463.071, 871.423 465.750 M 973.450 464.271 C 973.181 464.970, 973.083 476.107, 973.231 489.021 L 973.500 512.500 988.250 512.777 L 1003 513.053 1003 508.027 L 1003 503 992.500 503 L 982 503 982 497 L 982 491 991.500 491 L 1001 491 1001 486.500 L 1001 482 991.500 482 L 982 482 982 477.500 L 982 473 992 473 L 1002 473 1002 468 L 1002 463 987.969 463 C 977.544 463, 973.812 463.327, 973.450 464.271 M 1017 488 L 1017 513 1024.750 512.976 C 1035.657 512.943, 1039.913 511.744, 1043.677 507.647 C 1047.734 503.230, 1048.989 498.590, 1048.989 488 C 1048.989 477.410, 1047.734 472.770, 1043.677 468.353 C 1039.913 464.256, 1035.657 463.057, 1024.750 463.024 L 1017 463 1017 488 M 1071.922 465.274 C 1065.091 469.877, 1062.015 476.994, 1062.006 488.212 C 1061.996 499.249, 1066.376 508.123, 1073.684 511.878 C 1074.886 512.495, 1078.486 512.996, 1081.684 512.991 C 1086.311 512.983, 1088.573 512.366, 1092.750 509.970 L 1098 506.960 1098 496.480 L 1098 486 1089.500 486 L 1081 486 1081 490.500 L 1081 495 1085.500 495 C 1089.640 495, 1090 495.201, 1090 497.515 C 1090 499.279, 1089.030 500.621, 1086.750 502.011 C 1077.697 507.531, 1071 501.224, 1071 487.180 C 1071 481.669, 1071.455 479.621, 1073.281 476.911 C 1077.476 470.686, 1084.975 470.484, 1088.002 476.515 C 1089.446 479.390, 1089.672 479.473, 1093.737 478.615 C 1097.646 477.790, 1097.922 477.524, 1097.356 475.111 C 1096.382 470.962, 1093.387 466.646, 1090.165 464.750 C 1085.671 462.105, 1076.221 462.377, 1071.922 465.274 M 1112.450 464.271 C 1112.181 464.970, 1112.083 476.107, 1112.231 489.021 L 1112.500 512.500 1127.250 512.777 L 1142 513.053 1142 508.027 L 1142 503 1131.500 503 L 1121 503 1121 497 L 1121 491 1130.500 491 L 1140 491 1140 486.500 L 1140 482 1130.500 482 L 1121 482 1121 477.500 L 1121 473 1131 473 L 1141 473 1141 468 L 1141 463 1126.969 463 C 1116.544 463, 1112.812 463.327, 1112.450 464.271 M 1187.750 464.080 C 1185.454 465.417, 1183 470.248, 1183 473.430 C 1183 474.821, 1183.735 477.797, 1184.634 480.044 C 1186.268 484.128, 1186.268 484.128, 1183.055 487.443 C 1176.229 494.486, 1177.264 507.499, 1184.967 511.483 C 1189.329 513.739, 1197.155 513.453, 1200.375 510.920 L 1203.020 508.839 1206.190 511.507 L 1209.360 514.174 1211.164 511.837 C 1214.372 507.680, 1214.444 505.929, 1211.506 503.586 C 1208.796 501.426, 1208.796 501.426, 1210.395 496.043 C 1211.274 493.082, 1211.882 490.558, 1211.747 490.435 C 1211.611 490.311, 1209.813 489.748, 1207.750 489.185 C 1204.753 488.367, 1204 488.434, 1204 489.522 C 1204 492.296, 1202.034 491.967, 1200.464 488.931 C 1198.934 485.973, 1198.953 485.675, 1200.797 483.648 C 1203.895 480.241, 1205 477.439, 1205 472.989 C 1205 469.743, 1204.367 468.213, 1202.077 465.923 C 1199.640 463.486, 1198.351 463.005, 1194.327 463.030 C 1191.672 463.047, 1188.712 463.519, 1187.750 464.080 M 1250.500 464.140 C 1250.204 464.911, 1250.083 476.107, 1250.231 489.021 L 1250.500 512.500 1260.500 512.500 C 1272.857 512.500, 1276.268 510.923, 1280 503.483 C 1282.213 499.072, 1282.500 497.238, 1282.500 487.500 C 1282.500 477.610, 1282.248 476.055, 1280 472.089 C 1275.882 464.822, 1273.645 463.745, 1261.563 463.208 C 1253.141 462.833, 1250.930 463.020, 1250.500 464.140 M 1307.676 463.750 C 1307.106 464.718, 1293 511.388, 1293 512.306 C 1293 512.688, 1294.993 513, 1297.429 513 C 1301.858 513, 1301.858 513, 1303.457 507.500 L 1305.056 502 1312.383 502 L 1319.711 502 1321.109 507.250 C 1322.508 512.500, 1322.508 512.500, 1327.384 512.810 C 1331.063 513.044, 1332.149 512.799, 1331.809 511.810 C 1331.560 511.090, 1328.031 499.813, 1323.966 486.750 L 1316.575 463 1312.346 463 C 1310.021 463, 1307.919 463.337, 1307.676 463.750 M 1336.408 464.379 C 1336.106 465.166, 1336.003 467.315, 1336.180 469.155 C 1336.498 472.483, 1336.529 472.502, 1342.250 472.800 L 1348 473.100 1348 493.050 L 1348 513 1352 513 L 1356 513 1356 493.050 L 1356 473.100 1361.750 472.800 L 1367.500 472.500 1367.500 468 L 1367.500 463.500 1352.229 463.224 C 1339.721 462.998, 1336.858 463.207, 1336.408 464.379 M 1386.676 463.750 C 1386.106 464.718, 1372 511.388, 1372 512.306 C 1372 512.688, 1373.993 513, 1376.429 513 C 1380.858 513, 1380.858 513, 1382.457 507.500 L 1384.056 502 1391.383 502 L 1398.711 502 1400.109 507.250 C 1401.508 512.500, 1401.508 512.500, 1406.384 512.810 C 1410.063 513.044, 1411.149 512.799, 1410.809 511.810 C 1410.560 511.090, 1407.031 499.813, 1402.966 486.750 L 1395.575 463 1391.346 463 C 1389.021 463, 1386.919 463.337, 1386.676 463.750 M 1446.450 464.271 C 1446.181 464.970, 1446.083 476.107, 1446.231 489.021 L 1446.500 512.500 1450.750 512.807 L 1455 513.115 1455 502.557 L 1455 492 1463 492 L 1471 492 1471 487.500 L 1471 483 1463 483 L 1455 483 1455 478 L 1455 473 1464 473 L 1473 473 1473 468 L 1473 463 1459.969 463 C 1450.353 463, 1446.809 463.333, 1446.450 464.271 M 1534.898 465.289 C 1533.029 466.547, 1530.375 469.585, 1529 472.039 C 1526.737 476.077, 1526.500 477.590, 1526.500 488 C 1526.500 498.410, 1526.737 499.923, 1529 503.961 C 1530.375 506.415, 1533.075 509.491, 1535 510.798 C 1537.988 512.826, 1539.454 513.121, 1545.022 512.817 C 1556.845 512.171, 1562.178 505.372, 1562.849 490.087 C 1563.414 477.217, 1559.668 467.968, 1552.514 464.574 C 1547.459 462.175, 1539.012 462.518, 1534.898 465.289 M 1573 464.541 C 1573 466.306, 1580.749 508.297, 1581.619 511.250 C 1582.008 512.569, 1583.205 513, 1586.485 513 C 1591.438 513, 1590.320 515.678, 1595.148 492.250 C 1596.423 486.063, 1597.707 481, 1598 481 C 1598.293 481, 1599.577 486.063, 1600.852 492.250 C 1605.681 515.680, 1604.556 513, 1609.564 513 C 1613.308 513, 1614.038 512.665, 1614.470 510.750 C 1615.613 505.689, 1623 465.345, 1623 464.162 C 1623 463.279, 1621.695 462.980, 1618.765 463.193 L 1614.530 463.500 1612.117 478.269 C 1610.790 486.391, 1609.492 492.825, 1609.232 492.566 C 1608.973 492.306, 1607.913 487.910, 1606.876 482.797 C 1605.840 477.684, 1604.512 471.137, 1603.925 468.250 L 1602.858 463 1597.929 463 C 1595.218 463, 1593 463.163, 1593 463.362 C 1593 464.076, 1588.118 487.681, 1587.374 490.561 C 1586.775 492.885, 1586.081 490.363, 1584.058 478.500 L 1581.500 463.500 1577.250 463.193 C 1573.837 462.946, 1573 463.211, 1573 464.541 M 1638.451 466.250 C 1636.095 468.425, 1634.737 470.722, 1634.344 473.194 C 1632.845 482.623, 1636.950 488.489, 1647.503 492.001 C 1654.705 494.398, 1656.541 496.446, 1655.036 500.407 C 1652.994 505.776, 1644.887 505.026, 1642.251 499.224 C 1641.321 497.176, 1640.454 495.333, 1640.326 495.130 C 1640.198 494.926, 1638.497 495.059, 1636.547 495.425 C 1633.614 495.976, 1633 496.521, 1633 498.577 C 1633 502.520, 1635.456 507.364, 1638.941 510.297 C 1641.674 512.597, 1643.074 512.999, 1648.327 512.996 C 1658.951 512.990, 1664 508.061, 1664 497.698 C 1664 493.736, 1663.394 491.397, 1661.727 488.924 C 1659.212 485.190, 1657.195 483.944, 1648.801 480.936 C 1642.821 478.794, 1640.793 476.159, 1643.040 473.452 C 1644.516 471.674, 1651.374 471.531, 1652.770 473.250 C 1653.328 473.938, 1653.952 475.400, 1654.156 476.500 C 1654.360 477.600, 1655.084 478.455, 1655.764 478.400 C 1656.444 478.345, 1658.350 478.233, 1660 478.150 C 1662.510 478.025, 1663 477.583, 1663 475.450 C 1663 472.023, 1660.622 467.634, 1657.385 465.088 C 1655.323 463.466, 1653.306 463, 1648.350 463 C 1642.541 463, 1641.656 463.291, 1638.451 466.250 M 933 488.528 L 933 513.056 946.750 512.778 L 960.500 512.500 960.500 508 L 960.500 503.500 951.250 503.212 L 942 502.925 942 483.462 L 942 464 937.500 464 L 933 464 933 488.528 M 1487 488.500 L 1487 513 1500.500 513 L 1514 513 1514 508 L 1514 503 1504.500 503 L 1495 503 1495 483.500 L 1495 464 1491 464 L 1487 464 1487 488.500 M 282.954 468.406 C 285.774 471.879, 305.657 484.270, 318.500 490.559 C 343.010 502.562, 371.242 510.385, 401.835 513.650 C 427.253 516.363, 461.978 514.725, 491.791 509.406 C 505.374 506.983, 502.391 506.625, 487.896 508.938 C 440.534 516.497, 397.184 514.740, 356.954 503.631 C 331.528 496.610, 305.907 484.541, 287.086 470.718 C 284.014 468.462, 282.154 467.421, 282.954 468.406 M 1192.137 471.335 C 1190.877 472.853, 1191.963 477.241, 1193.894 478.435 C 1195.595 479.486, 1198.542 474.084, 1197.324 472.149 C 1195.941 469.952, 1193.590 469.584, 1192.137 471.335 M 837.669 474.045 C 830.324 479.824, 832.153 500.662, 840.250 503.442 C 844.120 504.771, 848.013 503.141, 850.292 499.239 C 852.684 495.144, 853.571 485.788, 852.087 480.304 C 850.054 472.788, 843.103 469.771, 837.669 474.045 M 1540 473.282 C 1535.454 476.974, 1533.479 484.895, 1535.021 493.250 C 1537.153 504.799, 1547.530 507.611, 1552.506 497.989 C 1554.517 494.100, 1554.485 481.824, 1552.452 477.540 C 1550.123 472.633, 1543.562 470.389, 1540 473.282 M 1025 487.950 L 1025 503 1030.250 502.985 C 1033.138 502.976, 1035.995 502.639, 1036.600 502.235 C 1039.257 500.461, 1040.390 496.161, 1040.409 487.775 C 1040.425 480.500, 1040.085 478.590, 1038.362 476.275 C 1036.595 473.901, 1035.481 473.457, 1030.648 473.200 L 1025 472.900 1025 487.950 M 1259 488 L 1259 503 1264.345 503 C 1271.692 503, 1273.158 501.226, 1273.776 491.586 C 1274.694 477.287, 1272.439 473, 1264 473 L 1259 473 1259 488 M 1311.657 479 C 1310.112 483.108, 1307.874 492.207, 1308.303 492.637 C 1308.572 492.905, 1310.543 492.985, 1312.684 492.813 L 1316.577 492.500 1314.399 485 C 1313.188 480.829, 1311.971 478.166, 1311.657 479 M 1390.657 479 C 1389.112 483.108, 1386.874 492.207, 1387.303 492.637 C 1387.572 492.905, 1389.543 492.985, 1391.684 492.813 L 1395.577 492.500 1393.399 485 C 1392.188 480.829, 1390.971 478.166, 1390.657 479 M 1188.557 493.223 C 1186.448 496.234, 1186.584 501.314, 1188.829 503.345 C 1191.175 505.469, 1193.256 505.441, 1195.855 503.250 C 1197.932 501.500, 1197.932 501.500, 1194.725 496.250 C 1192.961 493.363, 1191.202 491, 1190.816 491 C 1190.429 491, 1189.413 492, 1188.557 493.223" stroke="none" fill="#fffcfc" fill-rule="evenodd"/><path d="" stroke="none" fill="#fcfcfc" fill-rule="evenodd"/></svg>